<?xml version="1.0" encoding="utf-8" standalone="no"?>
<!DOCTYPE svg PUBLIC "-//W3C//DTD SVG 1.1//EN"
  "http://www.w3.org/Graphics/SVG/1.1/DTD/svg11.dtd">
<!-- Created with matplotlib (https://matplotlib.org/) -->
<svg height="353.416406pt" version="1.1" viewBox="0 0 641.107031 353.416406" width="641.107031pt" xmlns="http://www.w3.org/2000/svg" xmlns:xlink="http://www.w3.org/1999/xlink">
 <metadata>
  <rdf:RDF xmlns:cc="http://creativecommons.org/ns#" xmlns:dc="http://purl.org/dc/elements/1.1/" xmlns:rdf="http://www.w3.org/1999/02/22-rdf-syntax-ns#">
   <cc:Work>
    <dc:type rdf:resource="http://purl.org/dc/dcmitype/StillImage"/>
    <dc:date>2021-05-09T19:02:15.924437</dc:date>
    <dc:format>image/svg+xml</dc:format>
    <dc:creator>
     <cc:Agent>
      <dc:title>Matplotlib v3.3.3, https://matplotlib.org/</dc:title>
     </cc:Agent>
    </dc:creator>
   </cc:Work>
  </rdf:RDF>
 </metadata>
 <defs>
  <style type="text/css">*{stroke-linecap:butt;stroke-linejoin:round;}</style>
 </defs>
 <g id="figure_1">
  <g id="patch_1">
   <path d="M -0 353.416406 
L 641.107031 353.416406 
L 641.107031 0 
L -0 0 
z
" style="fill:#ffffff;"/>
  </g>
  <g id="axes_1">
   <g id="patch_2">
    <path d="M 65.907031 294.34375 
L 623.907031 294.34375 
L 623.907031 17.14375 
L 65.907031 17.14375 
z
" style="fill:#ffffff;"/>
   </g>
   <g id="matplotlib.axis_1">
    <g id="xtick_1">
     <g id="line2d_1">
      <defs>
       <path d="M 0 0 
L 0 3.5 
" id="m4f39d79498" style="stroke:#000000;stroke-width:0.8;"/>
      </defs>
      <g>
       <use style="stroke:#000000;stroke-width:0.8;" x="65.907031" xlink:href="#m4f39d79498" y="294.34375"/>
      </g>
     </g>
     <g id="text_1">
      <!-- 0 -->
      <g transform="translate(60.907031 315.23125)scale(0.2 -0.2)">
       <defs>
        <path d="M 3.609375 32.71875 
Q 3.609375 44.046875 7.03125 52.21875 
Q 10.453125 60.40625 16.109375 64.40625 
Q 20.515625 67.578125 25.203125 67.578125 
Q 32.8125 67.578125 38.875 59.8125 
Q 46.4375 50.203125 46.4375 33.734375 
Q 46.4375 22.21875 43.109375 14.15625 
Q 39.796875 6.109375 34.640625 2.46875 
Q 29.5 -1.171875 24.703125 -1.171875 
Q 15.234375 -1.171875 8.9375 10.015625 
Q 3.609375 19.4375 3.609375 32.71875 
z
M 13.1875 31.5 
Q 13.1875 17.828125 16.546875 9.1875 
Q 19.34375 1.90625 24.859375 1.90625 
Q 27.484375 1.90625 30.3125 4.265625 
Q 33.15625 6.640625 34.625 12.203125 
Q 36.859375 20.609375 36.859375 35.890625 
Q 36.859375 47.21875 34.515625 54.78125 
Q 32.765625 60.40625 29.984375 62.75 
Q 27.984375 64.359375 25.140625 64.359375 
Q 21.828125 64.359375 19.234375 61.375 
Q 15.71875 57.328125 14.453125 48.625 
Q 13.1875 39.9375 13.1875 31.5 
z
" id="TimesNewRomanPSMT-48"/>
       </defs>
       <use xlink:href="#TimesNewRomanPSMT-48"/>
      </g>
     </g>
    </g>
    <g id="xtick_2">
     <g id="line2d_2">
      <g>
       <use style="stroke:#000000;stroke-width:0.8;" x="90.167901" xlink:href="#m4f39d79498" y="294.34375"/>
      </g>
     </g>
     <g id="text_2">
      <!-- 1 -->
      <g transform="translate(85.167901 315.23125)scale(0.2 -0.2)">
       <defs>
        <path d="M 11.71875 59.71875 
L 27.828125 67.578125 
L 29.4375 67.578125 
L 29.4375 11.671875 
Q 29.4375 6.109375 29.90625 4.734375 
Q 30.375 3.375 31.828125 2.640625 
Q 33.296875 1.90625 37.796875 1.8125 
L 37.796875 0 
L 12.890625 0 
L 12.890625 1.8125 
Q 17.578125 1.90625 18.9375 2.609375 
Q 20.3125 3.328125 20.84375 4.515625 
Q 21.390625 5.71875 21.390625 11.671875 
L 21.390625 47.40625 
Q 21.390625 54.640625 20.90625 56.6875 
Q 20.5625 58.25 19.65625 58.984375 
Q 18.75 59.71875 17.484375 59.71875 
Q 15.671875 59.71875 12.453125 58.203125 
z
" id="TimesNewRomanPSMT-49"/>
       </defs>
       <use xlink:href="#TimesNewRomanPSMT-49"/>
      </g>
     </g>
    </g>
    <g id="xtick_3">
     <g id="line2d_3">
      <g>
       <use style="stroke:#000000;stroke-width:0.8;" x="114.42877" xlink:href="#m4f39d79498" y="294.34375"/>
      </g>
     </g>
     <g id="text_3">
      <!-- 2 -->
      <g transform="translate(109.42877 315.23125)scale(0.2 -0.2)">
       <defs>
        <path d="M 45.84375 12.75 
L 41.21875 0 
L 2.15625 0 
L 2.15625 1.8125 
Q 19.390625 17.53125 26.421875 27.484375 
Q 33.453125 37.453125 33.453125 45.703125 
Q 33.453125 52 29.59375 56.046875 
Q 25.734375 60.109375 20.359375 60.109375 
Q 15.484375 60.109375 11.59375 57.25 
Q 7.71875 54.390625 5.859375 48.875 
L 4.046875 48.875 
Q 5.28125 57.90625 10.328125 62.734375 
Q 15.375 67.578125 22.953125 67.578125 
Q 31 67.578125 36.390625 62.40625 
Q 41.796875 57.234375 41.796875 50.203125 
Q 41.796875 45.171875 39.453125 40.140625 
Q 35.84375 32.234375 27.734375 23.390625 
Q 15.578125 10.109375 12.546875 7.375 
L 29.828125 7.375 
Q 35.109375 7.375 37.234375 7.765625 
Q 39.359375 8.15625 41.0625 9.34375 
Q 42.78125 10.546875 44.046875 12.75 
z
" id="TimesNewRomanPSMT-50"/>
       </defs>
       <use xlink:href="#TimesNewRomanPSMT-50"/>
      </g>
     </g>
    </g>
    <g id="xtick_4">
     <g id="line2d_4">
      <g>
       <use style="stroke:#000000;stroke-width:0.8;" x="138.68964" xlink:href="#m4f39d79498" y="294.34375"/>
      </g>
     </g>
     <g id="text_4">
      <!-- 3 -->
      <g transform="translate(133.68964 315.23125)scale(0.2 -0.2)">
       <defs>
        <path d="M 5.078125 53.609375 
Q 7.90625 60.296875 12.21875 63.9375 
Q 16.546875 67.578125 23 67.578125 
Q 30.953125 67.578125 35.203125 62.40625 
Q 38.421875 58.546875 38.421875 54.15625 
Q 38.421875 46.921875 29.34375 39.203125 
Q 35.453125 36.8125 38.578125 32.375 
Q 41.703125 27.9375 41.703125 21.921875 
Q 41.703125 13.328125 36.234375 7.03125 
Q 29.109375 -1.171875 15.578125 -1.171875 
Q 8.890625 -1.171875 6.46875 0.484375 
Q 4.046875 2.15625 4.046875 4.046875 
Q 4.046875 5.46875 5.1875 6.546875 
Q 6.34375 7.625 7.953125 7.625 
Q 9.1875 7.625 10.453125 7.234375 
Q 11.28125 6.984375 14.203125 5.4375 
Q 17.140625 3.90625 18.265625 3.609375 
Q 20.0625 3.078125 22.125 3.078125 
Q 27.09375 3.078125 30.78125 6.9375 
Q 34.46875 10.796875 34.46875 16.0625 
Q 34.46875 19.921875 32.765625 23.578125 
Q 31.5 26.3125 29.984375 27.734375 
Q 27.875 29.6875 24.21875 31.265625 
Q 20.5625 32.859375 16.75 32.859375 
L 15.1875 32.859375 
L 15.1875 34.328125 
Q 19.046875 34.8125 22.921875 37.109375 
Q 26.8125 39.40625 28.5625 42.625 
Q 30.328125 45.84375 30.328125 49.703125 
Q 30.328125 54.734375 27.171875 57.828125 
Q 24.03125 60.9375 19.34375 60.9375 
Q 11.765625 60.9375 6.6875 52.828125 
z
" id="TimesNewRomanPSMT-51"/>
       </defs>
       <use xlink:href="#TimesNewRomanPSMT-51"/>
      </g>
     </g>
    </g>
    <g id="xtick_5">
     <g id="line2d_5">
      <g>
       <use style="stroke:#000000;stroke-width:0.8;" x="162.95051" xlink:href="#m4f39d79498" y="294.34375"/>
      </g>
     </g>
     <g id="text_5">
      <!-- 4 -->
      <g transform="translate(157.95051 315.23125)scale(0.2 -0.2)">
       <defs>
        <path d="M 46.53125 24.421875 
L 46.53125 17.484375 
L 37.640625 17.484375 
L 37.640625 0 
L 29.59375 0 
L 29.59375 17.484375 
L 1.5625 17.484375 
L 1.5625 23.734375 
L 32.28125 67.578125 
L 37.640625 67.578125 
L 37.640625 24.421875 
z
M 29.59375 24.421875 
L 29.59375 57.28125 
L 6.34375 24.421875 
z
" id="TimesNewRomanPSMT-52"/>
       </defs>
       <use xlink:href="#TimesNewRomanPSMT-52"/>
      </g>
     </g>
    </g>
    <g id="xtick_6">
     <g id="line2d_6">
      <g>
       <use style="stroke:#000000;stroke-width:0.8;" x="187.211379" xlink:href="#m4f39d79498" y="294.34375"/>
      </g>
     </g>
     <g id="text_6">
      <!-- 5 -->
      <g transform="translate(182.211379 315.23125)scale(0.2 -0.2)">
       <defs>
        <path d="M 43.40625 66.21875 
L 39.59375 57.90625 
L 19.671875 57.90625 
L 15.328125 49.03125 
Q 28.265625 47.125 35.84375 39.40625 
Q 42.328125 32.765625 42.328125 23.78125 
Q 42.328125 18.5625 40.203125 14.109375 
Q 38.09375 9.671875 34.859375 6.546875 
Q 31.640625 3.421875 27.6875 1.515625 
Q 22.078125 -1.171875 16.15625 -1.171875 
Q 10.203125 -1.171875 7.484375 0.84375 
Q 4.78125 2.875 4.78125 5.328125 
Q 4.78125 6.6875 5.90625 7.734375 
Q 7.03125 8.796875 8.734375 8.796875 
Q 10.015625 8.796875 10.96875 8.40625 
Q 11.921875 8.015625 14.203125 6.390625 
Q 17.875 3.859375 21.625 3.859375 
Q 27.34375 3.859375 31.65625 8.171875 
Q 35.984375 12.5 35.984375 18.703125 
Q 35.984375 24.703125 32.125 29.90625 
Q 28.265625 35.109375 21.484375 37.9375 
Q 16.15625 40.140625 6.984375 40.484375 
L 19.671875 66.21875 
z
" id="TimesNewRomanPSMT-53"/>
       </defs>
       <use xlink:href="#TimesNewRomanPSMT-53"/>
      </g>
     </g>
    </g>
    <g id="xtick_7">
     <g id="line2d_7">
      <g>
       <use style="stroke:#000000;stroke-width:0.8;" x="211.472249" xlink:href="#m4f39d79498" y="294.34375"/>
      </g>
     </g>
     <g id="text_7">
      <!-- 6 -->
      <g transform="translate(206.472249 315.23125)scale(0.2 -0.2)">
       <defs>
        <path d="M 44.828125 67.578125 
L 44.828125 65.765625 
Q 38.375 65.140625 34.296875 63.203125 
Q 30.21875 61.28125 26.234375 57.328125 
Q 22.265625 53.375 19.65625 48.515625 
Q 17.046875 43.65625 15.28125 36.96875 
Q 22.3125 41.796875 29.390625 41.796875 
Q 36.1875 41.796875 41.15625 36.328125 
Q 46.140625 30.859375 46.140625 22.265625 
Q 46.140625 13.96875 41.109375 7.125 
Q 35.0625 -1.171875 25.09375 -1.171875 
Q 18.3125 -1.171875 13.578125 3.328125 
Q 4.296875 12.0625 4.296875 25.984375 
Q 4.296875 34.859375 7.859375 42.859375 
Q 11.421875 50.875 18.03125 57.078125 
Q 24.65625 63.28125 30.703125 65.421875 
Q 36.765625 67.578125 42 67.578125 
z
M 14.453125 33.40625 
Q 13.578125 26.8125 13.578125 22.75 
Q 13.578125 18.0625 15.3125 12.5625 
Q 17.046875 7.078125 20.453125 3.859375 
Q 22.953125 1.5625 26.515625 1.5625 
Q 30.765625 1.5625 34.109375 5.5625 
Q 37.453125 9.578125 37.453125 17 
Q 37.453125 25.34375 34.125 31.4375 
Q 30.8125 37.546875 24.703125 37.546875 
Q 22.859375 37.546875 20.734375 36.765625 
Q 18.609375 35.984375 14.453125 33.40625 
z
" id="TimesNewRomanPSMT-54"/>
       </defs>
       <use xlink:href="#TimesNewRomanPSMT-54"/>
      </g>
     </g>
    </g>
    <g id="xtick_8">
     <g id="line2d_8">
      <g>
       <use style="stroke:#000000;stroke-width:0.8;" x="235.733118" xlink:href="#m4f39d79498" y="294.34375"/>
      </g>
     </g>
     <g id="text_8">
      <!-- 7 -->
      <g transform="translate(230.733118 315.23125)scale(0.2 -0.2)">
       <defs>
        <path d="M 10.0625 66.21875 
L 45.5625 66.21875 
L 45.5625 64.359375 
L 23.484375 -1.375 
L 18.015625 -1.375 
L 37.796875 58.25 
L 19.578125 58.25 
Q 14.0625 58.25 11.71875 56.9375 
Q 7.625 54.6875 5.125 50 
L 3.71875 50.53125 
z
" id="TimesNewRomanPSMT-55"/>
       </defs>
       <use xlink:href="#TimesNewRomanPSMT-55"/>
      </g>
     </g>
    </g>
    <g id="xtick_9">
     <g id="line2d_9">
      <g>
       <use style="stroke:#000000;stroke-width:0.8;" x="259.993988" xlink:href="#m4f39d79498" y="294.34375"/>
      </g>
     </g>
     <g id="text_9">
      <!-- 8 -->
      <g transform="translate(254.993988 315.23125)scale(0.2 -0.2)">
       <defs>
        <path d="M 19.1875 33.34375 
Q 11.328125 39.796875 9.046875 43.703125 
Q 6.78125 47.609375 6.78125 51.8125 
Q 6.78125 58.25 11.765625 62.90625 
Q 16.75 67.578125 25 67.578125 
Q 33.015625 67.578125 37.890625 63.234375 
Q 42.78125 58.890625 42.78125 53.328125 
Q 42.78125 49.609375 40.140625 45.75 
Q 37.5 41.890625 29.15625 36.671875 
Q 37.75 30.03125 40.53125 26.21875 
Q 44.234375 21.234375 44.234375 15.71875 
Q 44.234375 8.734375 38.90625 3.78125 
Q 33.59375 -1.171875 24.953125 -1.171875 
Q 15.53125 -1.171875 10.25 4.734375 
Q 6.0625 9.46875 6.0625 15.09375 
Q 6.0625 19.484375 9.015625 23.796875 
Q 11.96875 28.125 19.1875 33.34375 
z
M 26.859375 38.578125 
Q 32.71875 43.84375 34.28125 46.890625 
Q 35.84375 49.953125 35.84375 53.8125 
Q 35.84375 58.9375 32.953125 61.84375 
Q 30.078125 64.75 25.09375 64.75 
Q 20.125 64.75 17 61.859375 
Q 13.875 58.984375 13.875 55.125 
Q 13.875 52.59375 15.15625 50.046875 
Q 16.453125 47.515625 18.84375 45.21875 
z
M 21.484375 31.5 
Q 17.4375 28.078125 15.484375 24.046875 
Q 13.53125 20.015625 13.53125 15.328125 
Q 13.53125 9.03125 16.96875 5.25 
Q 20.40625 1.46875 25.734375 1.46875 
Q 31 1.46875 34.171875 4.4375 
Q 37.359375 7.421875 37.359375 11.671875 
Q 37.359375 15.1875 35.5 17.96875 
Q 32.03125 23.140625 21.484375 31.5 
z
" id="TimesNewRomanPSMT-56"/>
       </defs>
       <use xlink:href="#TimesNewRomanPSMT-56"/>
      </g>
     </g>
    </g>
    <g id="xtick_10">
     <g id="line2d_10">
      <g>
       <use style="stroke:#000000;stroke-width:0.8;" x="284.254857" xlink:href="#m4f39d79498" y="294.34375"/>
      </g>
     </g>
     <g id="text_10">
      <!-- 9 -->
      <g transform="translate(279.254857 315.23125)scale(0.2 -0.2)">
       <defs>
        <path d="M 5.28125 -1.375 
L 5.28125 0.4375 
Q 11.625 0.53125 17.09375 3.390625 
Q 22.5625 6.25 27.65625 13.375 
Q 32.765625 20.515625 34.765625 29.046875 
Q 27.09375 24.125 20.90625 24.125 
Q 13.921875 24.125 8.9375 29.515625 
Q 3.953125 34.90625 3.953125 43.84375 
Q 3.953125 52.546875 8.9375 59.328125 
Q 14.9375 67.578125 24.609375 67.578125 
Q 32.765625 67.578125 38.578125 60.84375 
Q 45.703125 52.484375 45.703125 40.234375 
Q 45.703125 29.203125 40.28125 19.65625 
Q 34.859375 10.109375 25.203125 3.8125 
Q 17.328125 -1.375 8.0625 -1.375 
z
M 35.546875 32.671875 
Q 36.421875 39.015625 36.421875 42.828125 
Q 36.421875 47.5625 34.8125 53.046875 
Q 33.203125 58.546875 30.25 61.46875 
Q 27.296875 64.40625 23.53125 64.40625 
Q 19.1875 64.40625 15.90625 60.5 
Q 12.640625 56.59375 12.640625 48.875 
Q 12.640625 38.578125 17 32.765625 
Q 20.171875 28.5625 24.8125 28.5625 
Q 27.046875 28.5625 30.125 29.640625 
Q 33.203125 30.71875 35.546875 32.671875 
z
" id="TimesNewRomanPSMT-57"/>
       </defs>
       <use xlink:href="#TimesNewRomanPSMT-57"/>
      </g>
     </g>
    </g>
    <g id="xtick_11">
     <g id="line2d_11">
      <g>
       <use style="stroke:#000000;stroke-width:0.8;" x="308.515727" xlink:href="#m4f39d79498" y="294.34375"/>
      </g>
     </g>
     <g id="text_11">
      <!-- 10 -->
      <g transform="translate(298.515727 315.23125)scale(0.2 -0.2)">
       <use xlink:href="#TimesNewRomanPSMT-49"/>
       <use x="50" xlink:href="#TimesNewRomanPSMT-48"/>
      </g>
     </g>
    </g>
    <g id="xtick_12">
     <g id="line2d_12">
      <g>
       <use style="stroke:#000000;stroke-width:0.8;" x="332.776596" xlink:href="#m4f39d79498" y="294.34375"/>
      </g>
     </g>
     <g id="text_12">
      <!-- 11 -->
      <g transform="translate(323.151596 315.23125)scale(0.2 -0.2)">
       <use xlink:href="#TimesNewRomanPSMT-49"/>
       <use x="46.25" xlink:href="#TimesNewRomanPSMT-49"/>
      </g>
     </g>
    </g>
    <g id="xtick_13">
     <g id="line2d_13">
      <g>
       <use style="stroke:#000000;stroke-width:0.8;" x="357.037466" xlink:href="#m4f39d79498" y="294.34375"/>
      </g>
     </g>
     <g id="text_13">
      <!-- 12 -->
      <g transform="translate(347.037466 315.23125)scale(0.2 -0.2)">
       <use xlink:href="#TimesNewRomanPSMT-49"/>
       <use x="50" xlink:href="#TimesNewRomanPSMT-50"/>
      </g>
     </g>
    </g>
    <g id="xtick_14">
     <g id="line2d_14">
      <g>
       <use style="stroke:#000000;stroke-width:0.8;" x="381.298336" xlink:href="#m4f39d79498" y="294.34375"/>
      </g>
     </g>
     <g id="text_14">
      <!-- 13 -->
      <g transform="translate(371.298336 315.23125)scale(0.2 -0.2)">
       <use xlink:href="#TimesNewRomanPSMT-49"/>
       <use x="50" xlink:href="#TimesNewRomanPSMT-51"/>
      </g>
     </g>
    </g>
    <g id="xtick_15">
     <g id="line2d_15">
      <g>
       <use style="stroke:#000000;stroke-width:0.8;" x="405.559205" xlink:href="#m4f39d79498" y="294.34375"/>
      </g>
     </g>
     <g id="text_15">
      <!-- 14 -->
      <g transform="translate(395.559205 315.23125)scale(0.2 -0.2)">
       <use xlink:href="#TimesNewRomanPSMT-49"/>
       <use x="50" xlink:href="#TimesNewRomanPSMT-52"/>
      </g>
     </g>
    </g>
    <g id="xtick_16">
     <g id="line2d_16">
      <g>
       <use style="stroke:#000000;stroke-width:0.8;" x="429.820075" xlink:href="#m4f39d79498" y="294.34375"/>
      </g>
     </g>
     <g id="text_16">
      <!-- 15 -->
      <g transform="translate(419.820075 315.23125)scale(0.2 -0.2)">
       <use xlink:href="#TimesNewRomanPSMT-49"/>
       <use x="50" xlink:href="#TimesNewRomanPSMT-53"/>
      </g>
     </g>
    </g>
    <g id="xtick_17">
     <g id="line2d_17">
      <g>
       <use style="stroke:#000000;stroke-width:0.8;" x="454.080944" xlink:href="#m4f39d79498" y="294.34375"/>
      </g>
     </g>
     <g id="text_17">
      <!-- 16 -->
      <g transform="translate(444.080944 315.23125)scale(0.2 -0.2)">
       <use xlink:href="#TimesNewRomanPSMT-49"/>
       <use x="50" xlink:href="#TimesNewRomanPSMT-54"/>
      </g>
     </g>
    </g>
    <g id="xtick_18">
     <g id="line2d_18">
      <g>
       <use style="stroke:#000000;stroke-width:0.8;" x="478.341814" xlink:href="#m4f39d79498" y="294.34375"/>
      </g>
     </g>
     <g id="text_18">
      <!-- 17 -->
      <g transform="translate(468.341814 315.23125)scale(0.2 -0.2)">
       <use xlink:href="#TimesNewRomanPSMT-49"/>
       <use x="50" xlink:href="#TimesNewRomanPSMT-55"/>
      </g>
     </g>
    </g>
    <g id="xtick_19">
     <g id="line2d_19">
      <g>
       <use style="stroke:#000000;stroke-width:0.8;" x="502.602683" xlink:href="#m4f39d79498" y="294.34375"/>
      </g>
     </g>
     <g id="text_19">
      <!-- 18 -->
      <g transform="translate(492.602683 315.23125)scale(0.2 -0.2)">
       <use xlink:href="#TimesNewRomanPSMT-49"/>
       <use x="50" xlink:href="#TimesNewRomanPSMT-56"/>
      </g>
     </g>
    </g>
    <g id="xtick_20">
     <g id="line2d_20">
      <g>
       <use style="stroke:#000000;stroke-width:0.8;" x="526.863553" xlink:href="#m4f39d79498" y="294.34375"/>
      </g>
     </g>
     <g id="text_20">
      <!-- 19 -->
      <g transform="translate(516.863553 315.23125)scale(0.2 -0.2)">
       <use xlink:href="#TimesNewRomanPSMT-49"/>
       <use x="50" xlink:href="#TimesNewRomanPSMT-57"/>
      </g>
     </g>
    </g>
    <g id="xtick_21">
     <g id="line2d_21">
      <g>
       <use style="stroke:#000000;stroke-width:0.8;" x="551.124423" xlink:href="#m4f39d79498" y="294.34375"/>
      </g>
     </g>
     <g id="text_21">
      <!-- 20 -->
      <g transform="translate(541.124423 315.23125)scale(0.2 -0.2)">
       <use xlink:href="#TimesNewRomanPSMT-50"/>
       <use x="50" xlink:href="#TimesNewRomanPSMT-48"/>
      </g>
     </g>
    </g>
    <g id="xtick_22">
     <g id="line2d_22">
      <g>
       <use style="stroke:#000000;stroke-width:0.8;" x="575.385292" xlink:href="#m4f39d79498" y="294.34375"/>
      </g>
     </g>
     <g id="text_22">
      <!-- 21 -->
      <g transform="translate(565.385292 315.23125)scale(0.2 -0.2)">
       <use xlink:href="#TimesNewRomanPSMT-50"/>
       <use x="50" xlink:href="#TimesNewRomanPSMT-49"/>
      </g>
     </g>
    </g>
    <g id="xtick_23">
     <g id="line2d_23">
      <g>
       <use style="stroke:#000000;stroke-width:0.8;" x="599.646162" xlink:href="#m4f39d79498" y="294.34375"/>
      </g>
     </g>
     <g id="text_23">
      <!-- 22 -->
      <g transform="translate(589.646162 315.23125)scale(0.2 -0.2)">
       <use xlink:href="#TimesNewRomanPSMT-50"/>
       <use x="50" xlink:href="#TimesNewRomanPSMT-50"/>
      </g>
     </g>
    </g>
    <g id="xtick_24">
     <g id="line2d_24">
      <g>
       <use style="stroke:#000000;stroke-width:0.8;" x="623.907031" xlink:href="#m4f39d79498" y="294.34375"/>
      </g>
     </g>
     <g id="text_24">
      <!-- 23 -->
      <g transform="translate(613.907031 315.23125)scale(0.2 -0.2)">
       <use xlink:href="#TimesNewRomanPSMT-50"/>
       <use x="50" xlink:href="#TimesNewRomanPSMT-51"/>
      </g>
     </g>
    </g>
    <g id="text_25">
     <!-- Hour -->
     <g transform="translate(319.217578 340.86875)scale(0.25 -0.25)">
      <defs>
       <path d="M 20.5625 35.5 
L 51.3125 35.5 
L 51.3125 54.4375 
Q 51.3125 59.515625 50.6875 61.140625 
Q 50.203125 62.359375 48.640625 63.234375 
Q 46.53125 64.40625 44.1875 64.40625 
L 41.84375 64.40625 
L 41.84375 66.21875 
L 70.171875 66.21875 
L 70.171875 64.40625 
L 67.828125 64.40625 
Q 65.484375 64.40625 63.375 63.28125 
Q 61.8125 62.5 61.25 60.90625 
Q 60.6875 59.328125 60.6875 54.4375 
L 60.6875 11.71875 
Q 60.6875 6.6875 61.328125 5.078125 
Q 61.8125 3.859375 63.328125 2.984375 
Q 65.484375 1.8125 67.828125 1.8125 
L 70.171875 1.8125 
L 70.171875 0 
L 41.84375 0 
L 41.84375 1.8125 
L 44.1875 1.8125 
Q 48.25 1.8125 50.09375 4.203125 
Q 51.3125 5.765625 51.3125 11.71875 
L 51.3125 31.890625 
L 20.5625 31.890625 
L 20.5625 11.71875 
Q 20.5625 6.6875 21.1875 5.078125 
Q 21.6875 3.859375 23.25 2.984375 
Q 25.34375 1.8125 27.6875 1.8125 
L 30.078125 1.8125 
L 30.078125 0 
L 1.703125 0 
L 1.703125 1.8125 
L 4.046875 1.8125 
Q 8.15625 1.8125 10.015625 4.203125 
Q 11.1875 5.765625 11.1875 11.71875 
L 11.1875 54.4375 
Q 11.1875 59.515625 10.546875 61.140625 
Q 10.0625 62.359375 8.546875 63.234375 
Q 6.390625 64.40625 4.046875 64.40625 
L 1.703125 64.40625 
L 1.703125 66.21875 
L 30.078125 66.21875 
L 30.078125 64.40625 
L 27.6875 64.40625 
Q 25.34375 64.40625 23.25 63.28125 
Q 21.734375 62.5 21.140625 60.90625 
Q 20.5625 59.328125 20.5625 54.4375 
z
" id="TimesNewRomanPSMT-72"/>
       <path d="M 25 46.046875 
Q 35.15625 46.046875 41.3125 38.328125 
Q 46.53125 31.734375 46.53125 23.1875 
Q 46.53125 17.1875 43.640625 11.03125 
Q 40.765625 4.890625 35.71875 1.75 
Q 30.671875 -1.375 24.46875 -1.375 
Q 14.359375 -1.375 8.40625 6.6875 
Q 3.375 13.484375 3.375 21.921875 
Q 3.375 28.078125 6.421875 34.15625 
Q 9.46875 40.234375 14.453125 43.140625 
Q 19.4375 46.046875 25 46.046875 
z
M 23.484375 42.875 
Q 20.90625 42.875 18.28125 41.328125 
Q 15.671875 39.796875 14.0625 35.9375 
Q 12.453125 32.078125 12.453125 26.03125 
Q 12.453125 16.265625 16.328125 9.171875 
Q 20.21875 2.09375 26.5625 2.09375 
Q 31.296875 2.09375 34.375 6 
Q 37.453125 9.90625 37.453125 19.4375 
Q 37.453125 31.34375 32.328125 38.1875 
Q 28.859375 42.875 23.484375 42.875 
z
" id="TimesNewRomanPSMT-111"/>
       <path d="M 42.328125 44.734375 
L 42.328125 17.625 
Q 42.328125 9.859375 42.6875 8.125 
Q 43.0625 6.390625 43.859375 5.703125 
Q 44.671875 5.03125 45.75 5.03125 
Q 47.265625 5.03125 49.171875 5.859375 
L 49.859375 4.15625 
L 36.46875 -1.375 
L 34.28125 -1.375 
L 34.28125 8.109375 
Q 28.515625 1.859375 25.484375 0.234375 
Q 22.46875 -1.375 19.09375 -1.375 
Q 15.328125 -1.375 12.5625 0.796875 
Q 9.8125 2.984375 8.734375 6.390625 
Q 7.671875 9.8125 7.671875 16.0625 
L 7.671875 36.03125 
Q 7.671875 39.203125 6.984375 40.421875 
Q 6.296875 41.65625 4.953125 42.3125 
Q 3.609375 42.96875 0.09375 42.921875 
L 0.09375 44.734375 
L 15.765625 44.734375 
L 15.765625 14.796875 
Q 15.765625 8.546875 17.9375 6.59375 
Q 20.125 4.640625 23.1875 4.640625 
Q 25.296875 4.640625 27.953125 5.953125 
Q 30.609375 7.28125 34.28125 10.984375 
L 34.28125 36.328125 
Q 34.28125 40.140625 32.890625 41.484375 
Q 31.5 42.828125 27.09375 42.921875 
L 27.09375 44.734375 
z
" id="TimesNewRomanPSMT-117"/>
       <path d="M 16.21875 46.046875 
L 16.21875 35.984375 
Q 21.828125 46.046875 27.734375 46.046875 
Q 30.421875 46.046875 32.171875 44.40625 
Q 33.9375 42.78125 33.9375 40.625 
Q 33.9375 38.71875 32.65625 37.390625 
Q 31.390625 36.078125 29.640625 36.078125 
Q 27.9375 36.078125 25.8125 37.765625 
Q 23.6875 39.453125 22.65625 39.453125 
Q 21.78125 39.453125 20.75 38.484375 
Q 18.5625 36.46875 16.21875 31.890625 
L 16.21875 10.453125 
Q 16.21875 6.734375 17.140625 4.828125 
Q 17.78125 3.515625 19.390625 2.640625 
Q 21 1.765625 24.03125 1.765625 
L 24.03125 0 
L 1.125 0 
L 1.125 1.765625 
Q 4.546875 1.765625 6.203125 2.828125 
Q 7.421875 3.609375 7.90625 5.328125 
Q 8.15625 6.15625 8.15625 10.0625 
L 8.15625 27.390625 
Q 8.15625 35.203125 7.828125 36.6875 
Q 7.515625 38.1875 6.65625 38.859375 
Q 5.8125 39.546875 4.546875 39.546875 
Q 3.03125 39.546875 1.125 38.8125 
L 0.640625 40.578125 
L 14.15625 46.046875 
z
" id="TimesNewRomanPSMT-114"/>
      </defs>
      <use xlink:href="#TimesNewRomanPSMT-72"/>
      <use x="72.216797" xlink:href="#TimesNewRomanPSMT-111"/>
      <use x="122.216797" xlink:href="#TimesNewRomanPSMT-117"/>
      <use x="172.216797" xlink:href="#TimesNewRomanPSMT-114"/>
     </g>
    </g>
   </g>
   <g id="matplotlib.axis_2">
    <g id="ytick_1">
     <g id="line2d_25">
      <defs>
       <path d="M 0 0 
L -3.5 0 
" id="m7a66d922c3" style="stroke:#000000;stroke-width:0.8;"/>
      </defs>
      <g>
       <use style="stroke:#000000;stroke-width:0.8;" x="65.907031" xlink:href="#m7a66d922c3" y="255.449036"/>
      </g>
     </g>
     <g id="text_26">
      <!-- 1.7 -->
      <g transform="translate(33.907031 262.392786)scale(0.2 -0.2)">
       <defs>
        <path d="M 12.5 9.46875 
Q 14.796875 9.46875 16.359375 7.875 
Q 17.921875 6.296875 17.921875 4.046875 
Q 17.921875 1.8125 16.328125 0.21875 
Q 14.75 -1.375 12.5 -1.375 
Q 10.25 -1.375 8.65625 0.21875 
Q 7.078125 1.8125 7.078125 4.046875 
Q 7.078125 6.34375 8.65625 7.90625 
Q 10.25 9.46875 12.5 9.46875 
z
" id="TimesNewRomanPSMT-46"/>
       </defs>
       <use xlink:href="#TimesNewRomanPSMT-49"/>
       <use x="50" xlink:href="#TimesNewRomanPSMT-46"/>
       <use x="75" xlink:href="#TimesNewRomanPSMT-55"/>
      </g>
     </g>
    </g>
    <g id="ytick_2">
     <g id="line2d_26">
      <g>
       <use style="stroke:#000000;stroke-width:0.8;" x="65.907031" xlink:href="#m7a66d922c3" y="214.564067"/>
      </g>
     </g>
     <g id="text_27">
      <!-- 1.8 -->
      <g transform="translate(33.907031 221.507817)scale(0.2 -0.2)">
       <use xlink:href="#TimesNewRomanPSMT-49"/>
       <use x="50" xlink:href="#TimesNewRomanPSMT-46"/>
       <use x="75" xlink:href="#TimesNewRomanPSMT-56"/>
      </g>
     </g>
    </g>
    <g id="ytick_3">
     <g id="line2d_27">
      <g>
       <use style="stroke:#000000;stroke-width:0.8;" x="65.907031" xlink:href="#m7a66d922c3" y="173.679099"/>
      </g>
     </g>
     <g id="text_28">
      <!-- 1.9 -->
      <g transform="translate(33.907031 180.622849)scale(0.2 -0.2)">
       <use xlink:href="#TimesNewRomanPSMT-49"/>
       <use x="50" xlink:href="#TimesNewRomanPSMT-46"/>
       <use x="75" xlink:href="#TimesNewRomanPSMT-57"/>
      </g>
     </g>
    </g>
    <g id="ytick_4">
     <g id="line2d_28">
      <g>
       <use style="stroke:#000000;stroke-width:0.8;" x="65.907031" xlink:href="#m7a66d922c3" y="132.79413"/>
      </g>
     </g>
     <g id="text_29">
      <!-- 2.0 -->
      <g transform="translate(33.907031 139.73788)scale(0.2 -0.2)">
       <use xlink:href="#TimesNewRomanPSMT-50"/>
       <use x="50" xlink:href="#TimesNewRomanPSMT-46"/>
       <use x="75" xlink:href="#TimesNewRomanPSMT-48"/>
      </g>
     </g>
    </g>
    <g id="ytick_5">
     <g id="line2d_29">
      <g>
       <use style="stroke:#000000;stroke-width:0.8;" x="65.907031" xlink:href="#m7a66d922c3" y="91.909161"/>
      </g>
     </g>
     <g id="text_30">
      <!-- 2.1 -->
      <g transform="translate(33.907031 98.852911)scale(0.2 -0.2)">
       <use xlink:href="#TimesNewRomanPSMT-50"/>
       <use x="50" xlink:href="#TimesNewRomanPSMT-46"/>
       <use x="75" xlink:href="#TimesNewRomanPSMT-49"/>
      </g>
     </g>
    </g>
    <g id="ytick_6">
     <g id="line2d_30">
      <g>
       <use style="stroke:#000000;stroke-width:0.8;" x="65.907031" xlink:href="#m7a66d922c3" y="51.024193"/>
      </g>
     </g>
     <g id="text_31">
      <!-- 2.2 -->
      <g transform="translate(33.907031 57.967943)scale(0.2 -0.2)">
       <use xlink:href="#TimesNewRomanPSMT-50"/>
       <use x="50" xlink:href="#TimesNewRomanPSMT-46"/>
       <use x="75" xlink:href="#TimesNewRomanPSMT-50"/>
      </g>
     </g>
    </g>
    <g id="text_32">
     <!-- Number of requests -->
     <g transform="translate(24.559375 254.329688)rotate(-90)scale(0.25 -0.25)">
      <defs>
       <path d="M -1.3125 66.21875 
L 16.65625 66.21875 
L 57.125 16.546875 
L 57.125 54.734375 
Q 57.125 60.84375 55.765625 62.359375 
Q 53.953125 64.40625 50.046875 64.40625 
L 47.75 64.40625 
L 47.75 66.21875 
L 70.796875 66.21875 
L 70.796875 64.40625 
L 68.453125 64.40625 
Q 64.265625 64.40625 62.5 61.859375 
Q 61.421875 60.296875 61.421875 54.734375 
L 61.421875 -1.078125 
L 59.671875 -1.078125 
L 16.015625 52.25 
L 16.015625 11.46875 
Q 16.015625 5.375 17.328125 3.859375 
Q 19.1875 1.8125 23.046875 1.8125 
L 25.390625 1.8125 
L 25.390625 0 
L 2.34375 0 
L 2.34375 1.8125 
L 4.640625 1.8125 
Q 8.890625 1.8125 10.640625 4.34375 
Q 11.71875 5.90625 11.71875 11.46875 
L 11.71875 57.515625 
Q 8.84375 60.890625 7.34375 61.953125 
Q 5.859375 63.03125 2.984375 63.96875 
Q 1.5625 64.40625 -1.3125 64.40625 
z
" id="TimesNewRomanPSMT-78"/>
       <path d="M 16.40625 36.53125 
Q 21.296875 41.40625 22.171875 42.140625 
Q 24.359375 44 26.890625 45.015625 
Q 29.4375 46.046875 31.9375 46.046875 
Q 36.140625 46.046875 39.15625 43.59375 
Q 42.1875 41.15625 43.21875 36.53125 
Q 48.25 42.390625 51.703125 44.21875 
Q 55.171875 46.046875 58.84375 46.046875 
Q 62.40625 46.046875 65.15625 44.21875 
Q 67.921875 42.390625 69.53125 38.234375 
Q 70.609375 35.40625 70.609375 29.34375 
L 70.609375 10.109375 
Q 70.609375 5.90625 71.234375 4.34375 
Q 71.734375 3.265625 73.046875 2.515625 
Q 74.359375 1.765625 77.34375 1.765625 
L 77.34375 0 
L 55.28125 0 
L 55.28125 1.765625 
L 56.203125 1.765625 
Q 59.078125 1.765625 60.6875 2.875 
Q 61.8125 3.65625 62.3125 5.375 
Q 62.5 6.203125 62.5 10.109375 
L 62.5 29.34375 
Q 62.5 34.8125 61.1875 37.0625 
Q 59.28125 40.1875 55.078125 40.1875 
Q 52.484375 40.1875 49.875 38.890625 
Q 47.265625 37.59375 43.5625 34.078125 
L 43.453125 33.546875 
L 43.5625 31.453125 
L 43.5625 10.109375 
Q 43.5625 5.515625 44.0625 4.390625 
Q 44.578125 3.265625 45.984375 2.515625 
Q 47.40625 1.765625 50.828125 1.765625 
L 50.828125 0 
L 28.21875 0 
L 28.21875 1.765625 
Q 31.9375 1.765625 33.328125 2.640625 
Q 34.71875 3.515625 35.25 5.28125 
Q 35.5 6.109375 35.5 10.109375 
L 35.5 29.34375 
Q 35.5 34.8125 33.890625 37.203125 
Q 31.734375 40.328125 27.875 40.328125 
Q 25.25 40.328125 22.65625 38.921875 
Q 18.609375 36.765625 16.40625 34.078125 
L 16.40625 10.109375 
Q 16.40625 5.71875 17.015625 4.390625 
Q 17.625 3.078125 18.8125 2.421875 
Q 20.015625 1.765625 23.6875 1.765625 
L 23.6875 0 
L 1.5625 0 
L 1.5625 1.765625 
Q 4.640625 1.765625 5.859375 2.421875 
Q 7.078125 3.078125 7.703125 4.515625 
Q 8.34375 5.953125 8.34375 10.109375 
L 8.34375 27.203125 
Q 8.34375 34.578125 7.90625 36.71875 
Q 7.5625 38.328125 6.828125 38.9375 
Q 6.109375 39.546875 4.828125 39.546875 
Q 3.46875 39.546875 1.5625 38.8125 
L 0.828125 40.578125 
L 14.3125 46.046875 
L 16.40625 46.046875 
z
" id="TimesNewRomanPSMT-109"/>
       <path d="M 15.375 37.015625 
Q 21.875 46.046875 29.390625 46.046875 
Q 36.28125 46.046875 41.40625 40.15625 
Q 46.53125 34.28125 46.53125 24.078125 
Q 46.53125 12.15625 38.625 4.890625 
Q 31.84375 -1.375 23.484375 -1.375 
Q 19.578125 -1.375 15.546875 0.046875 
Q 11.53125 1.46875 7.328125 4.296875 
L 7.328125 50.640625 
Q 7.328125 58.25 6.953125 60 
Q 6.59375 61.765625 5.8125 62.390625 
Q 5.03125 63.03125 3.859375 63.03125 
Q 2.484375 63.03125 0.4375 62.25 
L -0.25 63.96875 
L 13.1875 69.4375 
L 15.375 69.4375 
z
M 15.375 33.890625 
L 15.375 7.125 
Q 17.875 4.6875 20.53125 3.4375 
Q 23.1875 2.203125 25.984375 2.203125 
Q 30.421875 2.203125 34.25 7.078125 
Q 38.09375 11.96875 38.09375 21.296875 
Q 38.09375 29.890625 34.25 34.5 
Q 30.421875 39.109375 25.53125 39.109375 
Q 22.953125 39.109375 20.359375 37.796875 
Q 18.40625 36.8125 15.375 33.890625 
z
" id="TimesNewRomanPSMT-98"/>
       <path d="M 10.640625 27.875 
Q 10.59375 17.921875 15.484375 12.25 
Q 20.359375 6.59375 26.953125 6.59375 
Q 31.34375 6.59375 34.59375 9 
Q 37.84375 11.421875 40.046875 17.28125 
L 41.546875 16.3125 
Q 40.53125 9.625 35.59375 4.125 
Q 30.671875 -1.375 23.25 -1.375 
Q 15.1875 -1.375 9.453125 4.90625 
Q 3.71875 11.1875 3.71875 21.78125 
Q 3.71875 33.25 9.59375 39.671875 
Q 15.484375 46.09375 24.359375 46.09375 
Q 31.890625 46.09375 36.71875 41.140625 
Q 41.546875 36.1875 41.546875 27.875 
z
M 10.640625 30.71875 
L 31.34375 30.71875 
Q 31.109375 35.015625 30.328125 36.765625 
Q 29.109375 39.5 26.6875 41.0625 
Q 24.265625 42.625 21.625 42.625 
Q 17.578125 42.625 14.375 39.46875 
Q 11.1875 36.328125 10.640625 30.71875 
z
" id="TimesNewRomanPSMT-101"/>
       <path id="TimesNewRomanPSMT-32"/>
       <path d="M 20.609375 41.21875 
L 20.609375 11.8125 
Q 20.609375 5.5625 21.96875 3.90625 
Q 23.78125 1.765625 26.8125 1.765625 
L 30.859375 1.765625 
L 30.859375 0 
L 4.15625 0 
L 4.15625 1.765625 
L 6.15625 1.765625 
Q 8.109375 1.765625 9.71875 2.734375 
Q 11.328125 3.71875 11.9375 5.375 
Q 12.546875 7.03125 12.546875 11.8125 
L 12.546875 41.21875 
L 3.859375 41.21875 
L 3.859375 44.734375 
L 12.546875 44.734375 
L 12.546875 47.65625 
Q 12.546875 54.34375 14.6875 58.984375 
Q 16.84375 63.625 21.265625 66.484375 
Q 25.6875 69.34375 31.203125 69.34375 
Q 36.328125 69.34375 40.625 66.015625 
Q 43.453125 63.8125 43.453125 61.078125 
Q 43.453125 59.625 42.1875 58.328125 
Q 40.921875 57.03125 39.453125 57.03125 
Q 38.328125 57.03125 37.078125 57.828125 
Q 35.84375 58.640625 34.03125 61.296875 
Q 32.234375 63.96875 30.71875 64.890625 
Q 29.203125 65.828125 27.34375 65.828125 
Q 25.09375 65.828125 23.53125 64.625 
Q 21.96875 63.421875 21.28125 60.90625 
Q 20.609375 58.40625 20.609375 47.953125 
L 20.609375 44.734375 
L 32.125 44.734375 
L 32.125 41.21875 
z
" id="TimesNewRomanPSMT-102"/>
       <path d="M 42.71875 46.046875 
L 42.71875 -11.46875 
Q 42.71875 -15.765625 43.296875 -16.984375 
Q 43.890625 -18.21875 45.140625 -18.890625 
Q 46.390625 -19.578125 50 -19.578125 
L 50 -21.390625 
L 27.4375 -21.390625 
L 27.4375 -19.578125 
L 28.375 -19.578125 
Q 31.109375 -19.578125 32.515625 -18.796875 
Q 33.5 -18.265625 34.078125 -16.875 
Q 34.671875 -15.484375 34.671875 -11.46875 
L 34.671875 7.765625 
Q 30.21875 2.484375 26.890625 0.546875 
Q 23.578125 -1.375 20.015625 -1.375 
Q 13.53125 -1.375 8.421875 4.53125 
Q 3.328125 10.453125 3.328125 20.359375 
Q 3.328125 31.734375 10.0625 38.890625 
Q 16.796875 46.046875 26.3125 46.046875 
Q 29.109375 46.046875 31.453125 45.265625 
Q 33.796875 44.484375 35.640625 42.921875 
Q 38.484375 44.28125 41.0625 46.046875 
z
M 34.671875 10.84375 
L 34.671875 31.84375 
Q 34.671875 35.5 33.71875 37.59375 
Q 32.765625 39.703125 30.3125 41.15625 
Q 27.875 42.625 24.8125 42.625 
Q 19.34375 42.625 15.4375 37.984375 
Q 11.53125 33.34375 11.53125 23.921875 
Q 11.53125 14.890625 15.5 10.203125 
Q 19.484375 5.515625 25.09375 5.515625 
Q 27.984375 5.515625 30.21875 6.765625 
Q 32.46875 8.015625 34.671875 10.84375 
z
" id="TimesNewRomanPSMT-113"/>
       <path d="M 32.03125 46.046875 
L 32.03125 30.8125 
L 30.421875 30.8125 
Q 28.5625 37.984375 25.65625 40.578125 
Q 22.75 43.171875 18.265625 43.171875 
Q 14.84375 43.171875 12.734375 41.359375 
Q 10.640625 39.546875 10.640625 37.359375 
Q 10.640625 34.625 12.203125 32.671875 
Q 13.71875 30.671875 18.359375 28.421875 
L 25.484375 24.953125 
Q 35.40625 20.125 35.40625 12.203125 
Q 35.40625 6.109375 30.78125 2.359375 
Q 26.171875 -1.375 20.453125 -1.375 
Q 16.359375 -1.375 11.078125 0.09375 
Q 9.46875 0.59375 8.453125 0.59375 
Q 7.328125 0.59375 6.6875 -0.6875 
L 5.078125 -0.6875 
L 5.078125 15.28125 
L 6.6875 15.28125 
Q 8.0625 8.453125 11.90625 4.984375 
Q 15.765625 1.515625 20.5625 1.515625 
Q 23.921875 1.515625 26.046875 3.484375 
Q 28.171875 5.46875 28.171875 8.25 
Q 28.171875 11.625 25.796875 13.921875 
Q 23.4375 16.21875 16.359375 19.734375 
Q 9.28125 23.25 7.078125 26.078125 
Q 4.890625 28.859375 4.890625 33.109375 
Q 4.890625 38.625 8.671875 42.328125 
Q 12.453125 46.046875 18.453125 46.046875 
Q 21.09375 46.046875 24.859375 44.921875 
Q 27.34375 44.1875 28.171875 44.1875 
Q 28.953125 44.1875 29.390625 44.53125 
Q 29.828125 44.875 30.421875 46.046875 
z
" id="TimesNewRomanPSMT-115"/>
       <path d="M 16.109375 59.421875 
L 16.109375 44.734375 
L 26.5625 44.734375 
L 26.5625 41.3125 
L 16.109375 41.3125 
L 16.109375 12.3125 
Q 16.109375 7.953125 17.359375 6.4375 
Q 18.609375 4.9375 20.5625 4.9375 
Q 22.171875 4.9375 23.6875 5.9375 
Q 25.203125 6.9375 26.03125 8.890625 
L 27.9375 8.890625 
Q 26.21875 4.109375 23.09375 1.6875 
Q 19.96875 -0.734375 16.65625 -0.734375 
Q 14.40625 -0.734375 12.25 0.515625 
Q 10.109375 1.765625 9.078125 4.078125 
Q 8.0625 6.390625 8.0625 11.234375 
L 8.0625 41.3125 
L 0.984375 41.3125 
L 0.984375 42.921875 
Q 3.65625 44 6.46875 46.5625 
Q 9.28125 49.125 11.46875 52.640625 
Q 12.59375 54.5 14.59375 59.421875 
z
" id="TimesNewRomanPSMT-116"/>
      </defs>
      <use xlink:href="#TimesNewRomanPSMT-78"/>
      <use x="72.216797" xlink:href="#TimesNewRomanPSMT-117"/>
      <use x="122.216797" xlink:href="#TimesNewRomanPSMT-109"/>
      <use x="200" xlink:href="#TimesNewRomanPSMT-98"/>
      <use x="250" xlink:href="#TimesNewRomanPSMT-101"/>
      <use x="294.384766" xlink:href="#TimesNewRomanPSMT-114"/>
      <use x="327.685547" xlink:href="#TimesNewRomanPSMT-32"/>
      <use x="352.685547" xlink:href="#TimesNewRomanPSMT-111"/>
      <use x="402.685547" xlink:href="#TimesNewRomanPSMT-102"/>
      <use x="435.986328" xlink:href="#TimesNewRomanPSMT-32"/>
      <use x="460.986328" xlink:href="#TimesNewRomanPSMT-114"/>
      <use x="494.287109" xlink:href="#TimesNewRomanPSMT-101"/>
      <use x="538.671875" xlink:href="#TimesNewRomanPSMT-113"/>
      <use x="588.671875" xlink:href="#TimesNewRomanPSMT-117"/>
      <use x="638.671875" xlink:href="#TimesNewRomanPSMT-101"/>
      <use x="683.056641" xlink:href="#TimesNewRomanPSMT-115"/>
      <use x="721.972656" xlink:href="#TimesNewRomanPSMT-116"/>
      <use x="749.755859" xlink:href="#TimesNewRomanPSMT-115"/>
     </g>
    </g>
    <g id="text_33">
     <!-- 1e6 -->
     <g transform="translate(65.907031 14.14375)scale(0.1 -0.1)">
      <use xlink:href="#TimesNewRomanPSMT-49"/>
      <use x="50" xlink:href="#TimesNewRomanPSMT-101"/>
      <use x="94.384766" xlink:href="#TimesNewRomanPSMT-54"/>
     </g>
    </g>
   </g>
   <g id="line2d_31">
    <path clip-path="url(#p21c1be2806)" d="M 65.907031 158.445359 
L 69.639473 180.834829 
L 73.371914 200.924289 
L 75.238135 210.106732 
L 77.104356 218.71443 
L 78.970576 226.747472 
L 80.836797 234.205942 
L 82.703018 241.089927 
L 84.569239 247.399513 
L 86.435459 253.134787 
L 88.30168 258.295834 
L 90.167901 262.882741 
L 92.034122 266.895594 
L 93.900342 270.33448 
L 95.766563 273.199483 
L 97.632784 275.490692 
L 99.499004 277.208191 
L 101.365225 278.352067 
L 103.231446 278.922407 
L 105.097667 278.919295 
L 106.963887 278.34282 
L 108.830108 277.193066 
L 110.696329 275.470121 
L 112.56255 273.174069 
L 114.42877 270.304998 
L 116.294991 266.881267 
L 118.161212 262.994323 
L 121.893653 254.269689 
L 129.358536 236.089633 
L 131.224757 232.032415 
L 133.090978 228.389759 
L 134.957198 225.271387 
L 136.823419 222.78702 
L 138.68964 221.046379 
L 140.555861 220.123109 
L 142.422081 219.946537 
L 144.288302 220.409916 
L 146.154523 221.406494 
L 148.020744 222.829522 
L 149.886964 224.572251 
L 153.619406 228.589814 
L 157.351847 232.605186 
L 159.218068 234.345177 
L 161.084289 235.764371 
L 162.95051 236.75602 
L 164.81673 237.241901 
L 166.682951 237.257908 
L 168.549172 236.868461 
L 170.415392 236.137981 
L 172.281613 235.13089 
L 174.147834 233.911607 
L 177.880275 231.094153 
L 181.612717 228.200985 
L 183.478938 226.887061 
L 185.345158 225.747472 
L 187.211379 224.846637 
L 189.0776 224.231708 
L 190.943821 223.880749 
L 192.810041 223.754554 
L 194.676262 223.813918 
L 198.408703 224.332498 
L 207.739807 226.131816 
L 209.606028 226.264238 
L 211.472249 226.229367 
L 213.338469 225.99525 
L 215.20469 225.558951 
L 217.070911 224.924791 
L 218.937132 224.097087 
L 220.803352 223.080158 
L 222.669573 221.878322 
L 224.535794 220.495899 
L 226.402015 218.937208 
L 228.268235 217.206566 
L 230.134456 215.308294 
L 233.866897 211.026129 
L 237.599339 206.136518 
L 243.198001 198.40977 
L 245.064222 196.012448 
L 246.930443 193.823999 
L 248.796663 191.91627 
L 250.662884 190.361106 
L 252.529105 189.230354 
L 254.395326 188.595858 
L 256.261546 188.529466 
L 258.127767 189.103024 
L 259.993988 190.388377 
L 261.860209 192.421699 
L 263.726429 195.09648 
L 265.59265 198.270535 
L 269.325091 205.547739 
L 273.057533 213.115846 
L 274.923754 216.65353 
L 276.789974 219.837391 
L 278.656195 222.525245 
L 280.522416 224.574909 
L 282.388637 225.8442 
L 284.254857 226.190935 
L 286.121078 225.521163 
L 287.987299 223.933859 
L 289.85352 221.576232 
L 291.71974 218.595488 
L 293.585961 215.138837 
L 297.318402 207.386641 
L 301.050844 199.497306 
L 302.917065 195.869231 
L 304.783285 192.648494 
L 306.649506 189.982303 
L 308.515727 188.017866 
L 310.381948 186.8635 
L 312.248168 186.471957 
L 314.114389 186.757099 
L 315.98061 187.632787 
L 317.846831 189.012882 
L 319.713051 190.811247 
L 321.579272 192.941742 
L 325.311714 197.854569 
L 330.910376 205.561326 
L 332.776596 207.875695 
L 334.642817 209.928214 
L 336.509038 211.67769 
L 338.375259 213.091918 
L 340.241479 214.138694 
L 342.1077 214.785814 
L 343.973921 215.001073 
L 345.840142 214.752269 
L 347.706362 214.007195 
L 349.572583 212.733649 
L 351.438804 210.899426 
L 353.305025 208.472321 
L 355.171245 205.420131 
L 357.037466 201.710651 
L 358.903687 197.339876 
L 360.769908 192.416593 
L 364.502349 181.460452 
L 370.101011 164.307101 
L 371.967232 158.945493 
L 373.833453 153.990284 
L 375.699673 149.57846 
L 377.565894 145.847009 
L 379.432115 142.932916 
L 381.298336 140.973168 
L 383.164556 140.064836 
L 385.030777 140.145325 
L 386.896998 141.112125 
L 388.763219 142.862724 
L 390.629439 145.294612 
L 392.49566 148.305279 
L 394.361881 151.792213 
L 396.228101 155.652904 
L 399.960543 164.085514 
L 405.559205 176.974836 
L 409.291647 184.689961 
L 413.024088 191.567348 
L 416.75653 197.73449 
L 420.488971 203.318879 
L 424.221413 208.448008 
L 429.820075 215.566976 
L 433.552516 220.042852 
L 437.284958 224.072415 
L 439.151178 225.823021 
L 441.017399 227.34588 
L 442.88362 228.602268 
L 444.749841 229.553464 
L 446.616061 230.160743 
L 448.482282 230.385382 
L 450.348503 230.18866 
L 452.214724 229.531852 
L 454.080944 228.376236 
L 455.947165 226.70368 
L 457.813386 224.578412 
L 459.679607 222.085252 
L 463.412048 216.334537 
L 470.876931 204.150472 
L 472.743152 201.457023 
L 474.609372 199.07424 
L 476.475593 197.086942 
L 478.341814 195.57995 
L 480.208035 194.610234 
L 482.074255 194.123366 
L 483.940476 194.037068 
L 485.806697 194.269065 
L 487.672918 194.737079 
L 491.405359 196.05205 
L 495.1378 197.323763 
L 497.004021 197.737705 
L 498.870242 197.894002 
L 500.736463 197.710376 
L 502.602683 197.10455 
L 504.468904 196.016002 
L 506.335125 194.471225 
L 508.201346 192.518465 
L 510.067566 190.20597 
L 511.933787 187.581988 
L 513.800008 184.694765 
L 517.532449 178.323589 
L 530.595994 154.822122 
L 532.462215 151.949843 
L 534.328436 149.339116 
L 536.194657 147.036214 
L 538.060877 145.087409 
L 539.927098 143.538971 
L 541.793319 142.437173 
L 543.65954 141.828286 
L 545.52576 141.758582 
L 547.391981 142.274332 
L 549.258202 143.421809 
L 551.124423 145.247283 
L 552.990643 147.771471 
L 554.856864 150.912868 
L 556.723085 154.564414 
L 558.589305 158.619049 
L 562.321747 167.509347 
L 567.920409 181.191458 
L 569.78663 185.416365 
L 571.652851 189.29494 
L 573.519071 192.720124 
L 575.385292 195.584856 
L 577.251513 197.805651 
L 579.117734 199.393326 
L 580.983954 200.382272 
L 582.850175 200.80688 
L 584.716396 200.701542 
L 586.582617 200.100649 
L 588.448837 199.038592 
L 590.315058 197.549764 
L 592.181279 195.668556 
L 594.047499 193.429358 
L 595.91372 190.866563 
L 597.779941 188.014562 
L 599.646162 184.907747 
L 603.378603 178.067237 
L 607.111045 170.620166 
L 620.17459 143.750959 
L 623.907031 136.979115 
L 623.907031 136.979115 
" style="fill:none;stroke:#1f77b4;stroke-linecap:square;stroke-width:1.5;"/>
   </g>
   <g id="line2d_32">
    <path clip-path="url(#p21c1be2806)" d="M 65.907031 188.017866 
L 67.773252 188.289186 
L 69.639473 188.929748 
L 71.505693 189.895948 
L 73.371914 191.144186 
L 75.238135 192.630859 
L 77.104356 194.312366 
L 80.836797 198.085473 
L 88.30168 206.051206 
L 92.034122 209.546203 
L 93.900342 211.019127 
L 95.766563 212.250866 
L 97.632784 213.197818 
L 99.499004 213.81638 
L 101.365225 214.062952 
L 103.231446 213.893931 
L 105.097667 213.265715 
L 106.963887 212.134703 
L 108.830108 210.457293 
L 110.696329 208.189882 
L 112.56255 205.288868 
L 114.42877 201.710651 
L 116.294991 197.442235 
L 118.161212 192.593053 
L 121.893653 181.712557 
L 127.492316 164.537088 
L 129.358536 159.144168 
L 131.224757 154.150767 
L 133.090978 149.696926 
L 134.957198 145.922686 
L 136.823419 142.968086 
L 138.68964 140.973168 
L 140.555861 140.037411 
L 142.422081 140.098047 
L 144.288302 141.051747 
L 146.154523 142.795181 
L 148.020744 145.225021 
L 149.886964 148.237938 
L 151.753185 151.730601 
L 153.619406 155.599683 
L 157.351847 164.053783 
L 162.95051 176.974836 
L 166.682951 184.702615 
L 170.415392 191.585415 
L 174.147834 197.75249 
L 177.880275 203.333089 
L 181.612717 208.456466 
L 187.211379 215.566976 
L 190.943821 220.039516 
L 194.676262 224.06769 
L 196.542483 225.818179 
L 198.408703 227.341223 
L 200.274924 228.59804 
L 202.141145 229.549844 
L 204.007366 230.157852 
L 205.873586 230.383279 
L 207.739807 230.187342 
L 209.606028 229.531256 
L 211.472249 228.376236 
L 213.338469 226.704105 
L 215.20469 224.579101 
L 217.070911 222.086069 
L 220.803352 216.335297 
L 228.268235 204.150565 
L 230.134456 201.456977 
L 232.000677 199.074116 
L 233.866897 197.086825 
L 235.733118 195.57995 
L 237.599339 194.610475 
L 239.46556 194.123945 
L 241.33178 194.038045 
L 243.198001 194.270462 
L 245.064222 194.738881 
L 248.796663 196.054465 
L 252.529105 197.326282 
L 254.395326 197.739991 
L 256.261546 197.895816 
L 258.127767 197.71144 
L 259.993988 197.10455 
L 261.860209 196.014613 
L 263.726429 194.468219 
L 265.59265 192.513741 
L 267.458871 190.199551 
L 269.325091 187.574022 
L 271.191312 184.685526 
L 274.923754 178.313122 
L 286.121078 157.914999 
L 287.987299 154.833565 
L 289.85352 151.96776 
L 291.71974 149.363394 
L 293.585961 147.066275 
L 295.452182 145.122212 
L 297.318402 143.577014 
L 299.184623 142.476489 
L 301.050844 141.866448 
L 302.917065 141.792697 
L 304.783285 142.301047 
L 306.649506 143.437306 
L 308.515727 145.247283 
L 310.381948 147.751596 
L 312.248168 150.870102 
L 314.114389 154.497466 
L 315.98061 158.528356 
L 319.713051 167.379373 
L 325.311714 181.048982 
L 327.177934 185.289005 
L 329.044155 189.195214 
L 330.910376 192.662276 
L 332.776596 195.584856 
L 334.642817 197.879835 
L 336.509038 199.552948 
L 338.375259 200.632145 
L 340.241479 201.145376 
L 342.1077 201.120592 
L 343.973921 200.585742 
L 345.840142 199.568776 
L 347.706362 198.097644 
L 349.572583 196.200296 
L 351.438804 193.904683 
L 353.305025 191.238753 
L 355.171245 188.230458 
L 357.037466 184.907747 
L 360.769908 177.471517 
L 364.502349 169.356874 
L 371.967232 152.962147 
L 375.699673 145.616963 
L 377.565894 142.361925 
L 379.432115 139.463166 
L 381.298336 136.979115 
L 383.164556 134.963396 
L 385.030777 133.450394 
L 386.896998 132.469683 
L 388.763219 132.050841 
L 390.629439 132.223443 
L 392.49566 133.017065 
L 394.361881 134.461283 
L 396.228101 136.585673 
L 398.094322 139.419811 
L 399.960543 142.993273 
L 401.826764 147.335634 
L 403.692984 152.476471 
L 405.559205 158.445359 
L 407.425426 165.24367 
L 409.291647 172.759949 
L 413.024088 189.387783 
L 424.221413 241.978091 
L 426.087633 249.671473 
L 427.953854 256.686243 
L 429.820075 262.882741 
L 431.686295 268.150839 
L 433.552516 272.498522 
L 435.418737 275.963306 
L 437.284958 278.582706 
L 439.151178 280.394236 
L 441.017399 281.435413 
L 442.88362 281.74375 
L 444.749841 281.356763 
L 446.616061 280.311968 
L 448.482282 278.646879 
L 450.348503 276.399011 
L 452.214724 273.605879 
L 454.080944 270.304998 
L 455.947165 266.544257 
L 457.813386 262.413033 
L 461.545827 253.438138 
L 467.144489 239.690941 
L 469.01071 235.431583 
L 470.876931 231.499997 
L 472.743152 227.995932 
L 474.609372 225.019141 
L 476.475593 222.669373 
L 478.341814 221.046379 
L 480.208035 220.215903 
L 482.074255 220.107657 
L 483.940476 220.617347 
L 485.806697 221.64068 
L 487.672918 223.07336 
L 489.539138 224.811095 
L 493.27158 228.784547 
L 497.004021 232.726683 
L 498.870242 234.425271 
L 500.736463 235.803149 
L 502.602683 236.75602 
L 504.468904 237.207735 
L 506.335125 237.19472 
L 508.201346 236.781547 
L 510.067566 236.032786 
L 511.933787 235.013007 
L 513.800008 233.786782 
L 517.532449 230.973274 
L 521.264891 228.108828 
L 523.131112 226.81893 
L 524.997332 225.710009 
L 526.863553 224.846637 
L 528.729774 224.275579 
L 530.595994 223.972379 
L 532.462215 223.894778 
L 534.328436 224.000514 
L 538.060877 224.592958 
L 545.52576 226.118439 
L 547.391981 226.324248 
L 549.258202 226.37531 
L 551.124423 226.229367 
L 552.990643 225.853931 
L 554.856864 225.255617 
L 556.723085 224.45081 
L 558.589305 223.455898 
L 560.455526 222.287269 
L 562.321747 220.96131 
L 566.054188 217.902949 
L 569.78663 214.411914 
L 573.519071 210.619303 
L 584.716396 198.956309 
L 588.448837 195.640397 
L 590.315058 194.209357 
L 592.181279 192.965097 
L 594.047499 191.934242 
L 595.91372 191.143419 
L 597.779941 190.619255 
L 599.646162 190.388377 
L 601.512382 190.477409 
L 603.378603 190.91298 
L 605.244824 191.721716 
L 607.111045 192.930242 
L 608.977265 194.565185 
L 610.843486 196.653173 
L 612.709707 199.220831 
L 614.575928 202.294785 
L 616.442148 205.901663 
L 618.308369 210.06809 
L 620.17459 214.820694 
L 622.040811 220.1861 
L 623.907031 226.190935 
L 623.907031 226.190935 
" style="fill:none;stroke:#ff7f0e;stroke-linecap:square;stroke-width:1.5;"/>
   </g>
   <g id="line2d_33">
    <path clip-path="url(#p21c1be2806)" d="M 65.907031 115.920495 
L 67.773252 106.727084 
L 69.639473 99.202443 
L 71.505693 93.237498 
L 73.371914 88.723176 
L 75.238135 85.550405 
L 77.104356 83.610114 
L 78.970576 82.793228 
L 80.836797 82.990677 
L 82.703018 84.093386 
L 84.569239 85.992285 
L 86.435459 88.5783 
L 88.30168 91.742359 
L 90.167901 95.375389 
L 93.900342 103.612074 
L 101.365225 120.913914 
L 103.231446 124.775716 
L 105.097667 128.233909 
L 106.963887 131.179422 
L 108.830108 133.503181 
L 110.696329 135.096115 
L 112.56255 135.849151 
L 114.42877 135.653216 
L 116.294991 134.442746 
L 118.161212 132.326207 
L 120.027433 129.455574 
L 121.893653 125.982822 
L 123.759874 122.059925 
L 127.492316 113.471593 
L 131.224757 104.906375 
L 133.090978 101.012369 
L 134.957198 97.580066 
L 136.823419 94.761439 
L 138.68964 92.708462 
L 140.555861 91.53224 
L 142.422081 91.180391 
L 144.288302 91.559662 
L 146.154523 92.576801 
L 148.020744 94.138555 
L 149.886964 96.151671 
L 151.753185 98.522897 
L 155.485627 103.966669 
L 161.084289 112.486837 
L 162.95051 115.048418 
L 164.81673 117.324683 
L 166.682951 119.26908 
L 168.549172 120.844404 
L 170.415392 122.013444 
L 172.281613 122.738992 
L 174.147834 122.983841 
L 176.014055 122.710782 
L 177.880275 121.882607 
L 179.746496 120.462106 
L 181.612717 118.412073 
L 183.478938 115.695299 
L 185.345158 112.274574 
L 187.211379 108.112692 
L 189.0776 103.204373 
L 190.943821 97.67206 
L 194.676262 85.352937 
L 200.274924 66.053584 
L 202.141145 60.019109 
L 204.007366 54.441242 
L 205.873586 49.474353 
L 207.739807 45.272816 
L 209.606028 41.991 
L 211.472249 39.783279 
L 213.338469 38.759063 
L 215.20469 38.847918 
L 217.070911 39.93445 
L 218.937132 41.903264 
L 220.803352 44.638965 
L 222.669573 48.026159 
L 224.535794 51.94945 
L 226.402015 56.293445 
L 230.134456 65.781966 
L 235.733118 80.285156 
L 239.46556 88.96574 
L 243.198001 96.703248 
L 246.930443 103.641265 
L 250.662884 109.923374 
L 254.395326 115.693157 
L 258.127767 121.0942 
L 263.726429 128.736438 
L 267.458871 133.269629 
L 269.325091 135.239074 
L 271.191312 136.952322 
L 273.057533 138.365804 
L 274.923754 139.435948 
L 276.789974 140.119184 
L 278.656195 140.371941 
L 280.522416 140.150648 
L 282.388637 139.411734 
L 284.254857 138.111629 
L 286.121078 136.229929 
L 287.987299 133.838899 
L 289.85352 131.033974 
L 291.71974 127.910586 
L 295.452182 121.090158 
L 299.184623 114.141081 
L 301.050844 110.856884 
L 302.917065 107.826824 
L 304.783285 105.146335 
L 306.649506 102.910852 
L 308.515727 101.215807 
L 310.381948 100.125294 
L 312.248168 99.578054 
L 314.114389 99.481487 
L 315.98061 99.742993 
L 317.846831 100.269973 
L 321.579272 101.749956 
L 325.311714 103.180641 
L 327.177934 103.645997 
L 329.044155 103.821231 
L 330.910376 103.613742 
L 332.776596 102.930931 
L 334.642817 101.704702 
L 336.509038 99.964969 
L 338.375259 97.76615 
L 340.241479 95.162664 
L 342.1077 92.208928 
L 343.973921 88.959359 
L 347.706362 81.790399 
L 358.903687 58.842536 
L 360.769908 55.375924 
L 362.636128 52.151893 
L 364.502349 49.22198 
L 366.36857 46.63772 
L 368.23479 44.450647 
L 370.101011 42.712297 
L 371.967232 41.474205 
L 373.833453 40.787906 
L 375.699673 40.704937 
L 377.565894 41.276831 
L 379.432115 42.555124 
L 381.298336 44.591352 
L 383.164556 47.40871 
L 385.030777 50.917036 
L 386.896998 54.997829 
L 388.763219 59.532587 
L 392.49566 69.489995 
L 398.094322 84.868311 
L 399.960543 89.638332 
L 401.826764 94.032808 
L 403.692984 97.933239 
L 405.559205 101.221122 
L 407.425426 103.802947 
L 409.291647 105.685171 
L 411.157867 106.899238 
L 413.024088 107.476595 
L 414.890309 107.448689 
L 416.75653 106.846967 
L 418.62275 105.702873 
L 420.488971 104.047856 
L 422.355192 101.91336 
L 424.221413 99.330833 
L 426.087633 96.331721 
L 427.953854 92.94747 
L 429.820075 89.209527 
L 433.552516 80.844053 
L 437.284958 71.715395 
L 442.88362 57.741623 
L 446.616061 49.005376 
L 448.482282 45.008308 
L 450.348503 41.346242 
L 452.214724 38.084905 
L 454.080944 35.290021 
L 455.947165 33.021913 
L 457.813386 31.319292 
L 459.679607 30.215468 
L 461.545827 29.74375 
L 463.412048 29.937448 
L 465.278269 30.829872 
L 467.144489 32.45433 
L 469.01071 34.844132 
L 470.876931 38.032588 
L 472.743152 42.053007 
L 474.609372 46.938699 
L 476.475593 52.722972 
L 478.341814 59.439137 
L 480.208035 67.088743 
L 482.074255 75.546302 
L 485.806697 94.256289 
L 497.004021 153.423356 
L 498.870242 162.076344 
L 500.736463 169.964807 
L 502.602683 176.931498 
L 504.468904 182.852493 
L 506.335125 187.737161 
L 508.201346 191.628197 
L 510.067566 194.568295 
L 511.933787 196.600148 
L 513.800008 197.76645 
L 515.666229 198.109896 
L 517.532449 197.673179 
L 519.39867 196.498992 
L 521.264891 194.630031 
L 523.131112 192.108989 
L 524.997332 188.978559 
L 526.863553 185.281435 
L 528.729774 181.071596 
L 530.595994 176.448152 
L 534.328436 166.402036 
L 539.927098 150.990719 
L 541.793319 146.203959 
L 543.65954 141.776363 
L 545.52576 137.818327 
L 547.391981 134.440248 
L 549.258202 131.75252 
L 551.124423 129.86554 
L 552.990643 128.852882 
L 554.856864 128.640841 
L 556.723085 129.118893 
L 558.589305 130.176511 
L 560.455526 131.70317 
L 562.321747 133.588345 
L 566.054188 137.992142 
L 569.78663 142.503698 
L 571.652851 144.523572 
L 573.519071 146.238809 
L 575.385292 147.538885 
L 577.251513 148.339569 
L 579.117734 148.661809 
L 580.983954 148.552849 
L 582.850175 148.059934 
L 584.716396 147.230306 
L 586.582617 146.111209 
L 588.448837 144.749888 
L 590.315058 143.193585 
L 594.047499 139.68501 
L 601.512382 132.406808 
L 603.378603 130.80846 
L 605.244824 129.393079 
L 607.111045 128.207911 
L 608.977265 127.300199 
L 610.843486 126.717186 
L 612.709707 126.506116 
L 614.575928 126.714232 
L 616.442148 127.388779 
L 618.308369 128.577 
L 620.17459 130.326139 
L 622.040811 132.68344 
L 623.907031 135.696145 
L 623.907031 135.696145 
" style="fill:none;stroke:#2ca02c;stroke-linecap:square;stroke-width:1.5;"/>
   </g>
   <g id="patch_3">
    <path d="M 65.907031 294.34375 
L 65.907031 17.14375 
" style="fill:none;stroke:#000000;stroke-linecap:square;stroke-linejoin:miter;stroke-width:0.8;"/>
   </g>
   <g id="patch_4">
    <path d="M 623.907031 294.34375 
L 623.907031 17.14375 
" style="fill:none;stroke:#000000;stroke-linecap:square;stroke-linejoin:miter;stroke-width:0.8;"/>
   </g>
   <g id="patch_5">
    <path d="M 65.907031 294.34375 
L 623.907031 294.34375 
" style="fill:none;stroke:#000000;stroke-linecap:square;stroke-linejoin:miter;stroke-width:0.8;"/>
   </g>
   <g id="patch_6">
    <path d="M 65.907031 17.14375 
L 623.907031 17.14375 
" style="fill:none;stroke:#000000;stroke-linecap:square;stroke-linejoin:miter;stroke-width:0.8;"/>
   </g>
   <g id="legend_1">
    <g id="patch_7">
     <path d="M 508.125781 117.978125 
L 609.907031 117.978125 
Q 613.907031 117.978125 613.907031 113.978125 
L 613.907031 31.14375 
Q 613.907031 27.14375 609.907031 27.14375 
L 508.125781 27.14375 
Q 504.125781 27.14375 504.125781 31.14375 
L 504.125781 113.978125 
Q 504.125781 117.978125 508.125781 117.978125 
z
" style="fill:#ffffff;opacity:0.8;stroke:#cccccc;stroke-linejoin:miter;"/>
    </g>
    <g id="line2d_34">
     <path d="M 512.125781 42.14375 
L 552.125781 42.14375 
" style="fill:none;stroke:#1f77b4;stroke-linecap:square;stroke-width:1.5;"/>
    </g>
    <g id="line2d_35"/>
    <g id="text_34">
     <!-- WE -->
     <g transform="translate(568.125781 49.14375)scale(0.2 -0.2)">
      <defs>
       <path d="M 93.609375 66.21875 
L 93.609375 64.40625 
Q 91.015625 64.40625 89.40625 63.46875 
Q 87.796875 62.546875 86.328125 60.015625 
Q 85.359375 58.296875 83.25 51.859375 
L 64.796875 -1.515625 
L 62.84375 -1.515625 
L 47.75 40.828125 
L 32.765625 -1.515625 
L 31 -1.515625 
L 11.328125 53.46875 
Q 9.125 59.625 8.546875 60.75 
Q 7.5625 62.59375 5.875 63.5 
Q 4.203125 64.40625 1.3125 64.40625 
L 1.3125 66.21875 
L 25.828125 66.21875 
L 25.828125 64.40625 
L 24.65625 64.40625 
Q 22.078125 64.40625 20.703125 63.234375 
Q 19.34375 62.0625 19.34375 60.40625 
Q 19.34375 58.6875 21.484375 52.546875 
L 34.515625 15.375 
L 45.515625 46.96875 
L 43.5625 52.546875 
L 42 56.984375 
Q 40.96875 59.421875 39.703125 61.28125 
Q 39.0625 62.203125 38.140625 62.84375 
Q 36.921875 63.71875 35.6875 64.109375 
Q 34.765625 64.40625 32.765625 64.40625 
L 32.765625 66.21875 
L 58.546875 66.21875 
L 58.546875 64.40625 
L 56.78125 64.40625 
Q 54.046875 64.40625 52.78125 63.234375 
Q 51.515625 62.0625 51.515625 60.0625 
Q 51.515625 57.5625 53.71875 51.375 
L 66.40625 15.375 
L 79 51.859375 
Q 81.15625 57.90625 81.15625 60.25 
Q 81.15625 61.375 80.4375 62.34375 
Q 79.734375 63.328125 78.65625 63.71875 
Q 76.8125 64.40625 73.828125 64.40625 
L 73.828125 66.21875 
z
" id="TimesNewRomanPSMT-87"/>
       <path d="M 20.90625 62.59375 
L 20.90625 36.421875 
L 35.453125 36.421875 
Q 41.109375 36.421875 43.015625 38.140625 
Q 45.5625 40.375 45.84375 46.046875 
L 47.65625 46.046875 
L 47.65625 23 
L 45.84375 23 
Q 45.171875 27.828125 44.484375 29.203125 
Q 43.609375 30.90625 41.59375 31.875 
Q 39.59375 32.859375 35.453125 32.859375 
L 20.90625 32.859375 
L 20.90625 11.03125 
Q 20.90625 6.640625 21.296875 5.6875 
Q 21.6875 4.734375 22.65625 4.171875 
Q 23.640625 3.609375 26.375 3.609375 
L 37.59375 3.609375 
Q 43.21875 3.609375 45.75 4.390625 
Q 48.296875 5.171875 50.640625 7.46875 
Q 53.65625 10.5 56.84375 16.609375 
L 58.796875 16.609375 
L 53.078125 0 
L 2.046875 0 
L 2.046875 1.8125 
L 4.390625 1.8125 
Q 6.734375 1.8125 8.84375 2.9375 
Q 10.40625 3.71875 10.96875 5.28125 
Q 11.53125 6.84375 11.53125 11.671875 
L 11.53125 54.6875 
Q 11.53125 60.984375 10.25 62.453125 
Q 8.5 64.40625 4.390625 64.40625 
L 2.046875 64.40625 
L 2.046875 66.21875 
L 53.078125 66.21875 
L 53.8125 51.703125 
L 51.90625 51.703125 
Q 50.875 56.9375 49.625 58.890625 
Q 48.390625 60.84375 45.953125 61.859375 
Q 44 62.59375 39.0625 62.59375 
z
" id="TimesNewRomanPSMT-69"/>
      </defs>
      <use xlink:href="#TimesNewRomanPSMT-87"/>
      <use x="94.384766" xlink:href="#TimesNewRomanPSMT-69"/>
     </g>
    </g>
    <g id="line2d_36">
     <path d="M 512.125781 70.421875 
L 552.125781 70.421875 
" style="fill:none;stroke:#ff7f0e;stroke-linecap:square;stroke-width:1.5;"/>
    </g>
    <g id="line2d_37"/>
    <g id="text_35">
     <!-- SEA -->
     <g transform="translate(568.125781 77.421875)scale(0.2 -0.2)">
      <defs>
       <path d="M 45.84375 67.71875 
L 45.84375 44.828125 
L 44.046875 44.828125 
Q 43.171875 51.421875 40.890625 55.328125 
Q 38.625 59.234375 34.421875 61.515625 
Q 30.21875 63.8125 25.734375 63.8125 
Q 20.65625 63.8125 17.328125 60.71875 
Q 14.015625 57.625 14.015625 53.65625 
Q 14.015625 50.640625 16.109375 48.140625 
Q 19.140625 44.484375 30.515625 38.375 
Q 39.796875 33.40625 43.1875 30.734375 
Q 46.578125 28.078125 48.40625 24.453125 
Q 50.25 20.84375 50.25 16.890625 
Q 50.25 9.375 44.40625 3.921875 
Q 38.578125 -1.515625 29.390625 -1.515625 
Q 26.515625 -1.515625 23.96875 -1.078125 
Q 22.46875 -0.828125 17.703125 0.703125 
Q 12.9375 2.25 11.671875 2.25 
Q 10.453125 2.25 9.734375 1.515625 
Q 9.03125 0.78125 8.6875 -1.515625 
L 6.890625 -1.515625 
L 6.890625 21.1875 
L 8.6875 21.1875 
Q 9.96875 14.0625 12.109375 10.515625 
Q 14.265625 6.984375 18.671875 4.640625 
Q 23.09375 2.296875 28.375 2.296875 
Q 34.46875 2.296875 38 5.515625 
Q 41.546875 8.734375 41.546875 13.140625 
Q 41.546875 15.578125 40.203125 18.0625 
Q 38.875 20.5625 36.03125 22.703125 
Q 34.125 24.171875 25.625 28.921875 
Q 17.140625 33.6875 13.546875 36.515625 
Q 9.96875 39.359375 8.109375 42.765625 
Q 6.25 46.1875 6.25 50.296875 
Q 6.25 57.421875 11.71875 62.5625 
Q 17.1875 67.71875 25.640625 67.71875 
Q 30.90625 67.71875 36.8125 65.140625 
Q 39.546875 63.921875 40.671875 63.921875 
Q 41.9375 63.921875 42.75 64.671875 
Q 43.5625 65.4375 44.046875 67.71875 
z
" id="TimesNewRomanPSMT-83"/>
       <path d="M 45.75 22.171875 
L 20.125 22.171875 
L 15.625 11.71875 
Q 13.96875 7.859375 13.96875 5.953125 
Q 13.96875 4.4375 15.40625 3.296875 
Q 16.84375 2.15625 21.625 1.8125 
L 21.625 0 
L 0.78125 0 
L 0.78125 1.8125 
Q 4.9375 2.546875 6.15625 3.71875 
Q 8.640625 6.0625 11.671875 13.234375 
L 34.96875 67.71875 
L 36.671875 67.71875 
L 59.71875 12.640625 
Q 62.5 6 64.765625 4.015625 
Q 67.046875 2.046875 71.09375 1.8125 
L 71.09375 0 
L 44.96875 0 
L 44.96875 1.8125 
Q 48.921875 2 50.3125 3.125 
Q 51.703125 4.25 51.703125 5.859375 
Q 51.703125 8.015625 49.75 12.640625 
z
M 44.390625 25.78125 
L 33.15625 52.546875 
L 21.625 25.78125 
z
" id="TimesNewRomanPSMT-65"/>
      </defs>
      <use xlink:href="#TimesNewRomanPSMT-83"/>
      <use x="55.615234" xlink:href="#TimesNewRomanPSMT-69"/>
      <use x="116.699219" xlink:href="#TimesNewRomanPSMT-65"/>
     </g>
    </g>
    <g id="line2d_38">
     <path d="M 512.125781 98.7 
L 552.125781 98.7 
" style="fill:none;stroke:#2ca02c;stroke-linecap:square;stroke-width:1.5;"/>
    </g>
    <g id="line2d_39"/>
    <g id="text_36">
     <!-- EE -->
     <g transform="translate(568.125781 105.7)scale(0.2 -0.2)">
      <use xlink:href="#TimesNewRomanPSMT-69"/>
      <use x="61.083984" xlink:href="#TimesNewRomanPSMT-69"/>
     </g>
    </g>
   </g>
  </g>
 </g>
 <defs>
  <clipPath id="p21c1be2806">
   <rect height="277.2" width="558" x="65.907031" y="17.14375"/>
  </clipPath>
 </defs>
</svg>
