<?xml version="1.0" encoding="utf-8" standalone="no"?>
<!DOCTYPE svg PUBLIC "-//W3C//DTD SVG 1.1//EN"
  "http://www.w3.org/Graphics/SVG/1.1/DTD/svg11.dtd">
<!-- Created with matplotlib (https://matplotlib.org/) -->
<svg height="360pt" version="1.1" viewBox="0 0 720 360" width="720pt" xmlns="http://www.w3.org/2000/svg" xmlns:xlink="http://www.w3.org/1999/xlink">
 <metadata>
  <rdf:RDF xmlns:cc="http://creativecommons.org/ns#" xmlns:dc="http://purl.org/dc/elements/1.1/" xmlns:rdf="http://www.w3.org/1999/02/22-rdf-syntax-ns#">
   <cc:Work>
    <dc:type rdf:resource="http://purl.org/dc/dcmitype/StillImage"/>
    <dc:date>2021-04-13T15:26:45.852898</dc:date>
    <dc:format>image/svg+xml</dc:format>
    <dc:creator>
     <cc:Agent>
      <dc:title>Matplotlib v3.3.3, https://matplotlib.org/</dc:title>
     </cc:Agent>
    </dc:creator>
   </cc:Work>
  </rdf:RDF>
 </metadata>
 <defs>
  <style type="text/css">*{stroke-linecap:butt;stroke-linejoin:round;}</style>
 </defs>
 <g id="figure_1">
  <g id="patch_1">
   <path d="M 0 360 
L 720 360 
L 720 0 
L 0 0 
z
" style="fill:#ffffff;"/>
  </g>
  <g id="axes_1">
   <g id="patch_2">
    <path d="M 90 320.4 
L 648 320.4 
L 648 43.2 
L 90 43.2 
z
" style="fill:#ffffff;"/>
   </g>
   <g id="matplotlib.axis_1">
    <g id="xtick_1">
     <g id="line2d_1">
      <defs>
       <path d="M 0 0 
L 0 3.5 
" id="m1af551f2f7" style="stroke:#000000;stroke-width:0.8;"/>
      </defs>
      <g>
       <use style="stroke:#000000;stroke-width:0.8;" x="90" xlink:href="#m1af551f2f7" y="320.4"/>
      </g>
     </g>
     <g id="text_1">
      <!-- 0 -->
      <g transform="translate(87.5 334.34375)scale(0.1 -0.1)">
       <defs>
        <path d="M 3.609375 32.71875 
Q 3.609375 44.046875 7.03125 52.21875 
Q 10.453125 60.40625 16.109375 64.40625 
Q 20.515625 67.578125 25.203125 67.578125 
Q 32.8125 67.578125 38.875 59.8125 
Q 46.4375 50.203125 46.4375 33.734375 
Q 46.4375 22.21875 43.109375 14.15625 
Q 39.796875 6.109375 34.640625 2.46875 
Q 29.5 -1.171875 24.703125 -1.171875 
Q 15.234375 -1.171875 8.9375 10.015625 
Q 3.609375 19.4375 3.609375 32.71875 
z
M 13.1875 31.5 
Q 13.1875 17.828125 16.546875 9.1875 
Q 19.34375 1.90625 24.859375 1.90625 
Q 27.484375 1.90625 30.3125 4.265625 
Q 33.15625 6.640625 34.625 12.203125 
Q 36.859375 20.609375 36.859375 35.890625 
Q 36.859375 47.21875 34.515625 54.78125 
Q 32.765625 60.40625 29.984375 62.75 
Q 27.984375 64.359375 25.140625 64.359375 
Q 21.828125 64.359375 19.234375 61.375 
Q 15.71875 57.328125 14.453125 48.625 
Q 13.1875 39.9375 13.1875 31.5 
z
" id="TimesNewRomanPSMT-48"/>
       </defs>
       <use xlink:href="#TimesNewRomanPSMT-48"/>
      </g>
     </g>
    </g>
    <g id="xtick_2">
     <g id="line2d_2">
      <g>
       <use style="stroke:#000000;stroke-width:0.8;" x="114.26087" xlink:href="#m1af551f2f7" y="320.4"/>
      </g>
     </g>
     <g id="text_2">
      <!-- 1 -->
      <g transform="translate(111.76087 334.34375)scale(0.1 -0.1)">
       <defs>
        <path d="M 11.71875 59.71875 
L 27.828125 67.578125 
L 29.4375 67.578125 
L 29.4375 11.671875 
Q 29.4375 6.109375 29.90625 4.734375 
Q 30.375 3.375 31.828125 2.640625 
Q 33.296875 1.90625 37.796875 1.8125 
L 37.796875 0 
L 12.890625 0 
L 12.890625 1.8125 
Q 17.578125 1.90625 18.9375 2.609375 
Q 20.3125 3.328125 20.84375 4.515625 
Q 21.390625 5.71875 21.390625 11.671875 
L 21.390625 47.40625 
Q 21.390625 54.640625 20.90625 56.6875 
Q 20.5625 58.25 19.65625 58.984375 
Q 18.75 59.71875 17.484375 59.71875 
Q 15.671875 59.71875 12.453125 58.203125 
z
" id="TimesNewRomanPSMT-49"/>
       </defs>
       <use xlink:href="#TimesNewRomanPSMT-49"/>
      </g>
     </g>
    </g>
    <g id="xtick_3">
     <g id="line2d_3">
      <g>
       <use style="stroke:#000000;stroke-width:0.8;" x="138.521739" xlink:href="#m1af551f2f7" y="320.4"/>
      </g>
     </g>
     <g id="text_3">
      <!-- 2 -->
      <g transform="translate(136.021739 334.34375)scale(0.1 -0.1)">
       <defs>
        <path d="M 45.84375 12.75 
L 41.21875 0 
L 2.15625 0 
L 2.15625 1.8125 
Q 19.390625 17.53125 26.421875 27.484375 
Q 33.453125 37.453125 33.453125 45.703125 
Q 33.453125 52 29.59375 56.046875 
Q 25.734375 60.109375 20.359375 60.109375 
Q 15.484375 60.109375 11.59375 57.25 
Q 7.71875 54.390625 5.859375 48.875 
L 4.046875 48.875 
Q 5.28125 57.90625 10.328125 62.734375 
Q 15.375 67.578125 22.953125 67.578125 
Q 31 67.578125 36.390625 62.40625 
Q 41.796875 57.234375 41.796875 50.203125 
Q 41.796875 45.171875 39.453125 40.140625 
Q 35.84375 32.234375 27.734375 23.390625 
Q 15.578125 10.109375 12.546875 7.375 
L 29.828125 7.375 
Q 35.109375 7.375 37.234375 7.765625 
Q 39.359375 8.15625 41.0625 9.34375 
Q 42.78125 10.546875 44.046875 12.75 
z
" id="TimesNewRomanPSMT-50"/>
       </defs>
       <use xlink:href="#TimesNewRomanPSMT-50"/>
      </g>
     </g>
    </g>
    <g id="xtick_4">
     <g id="line2d_4">
      <g>
       <use style="stroke:#000000;stroke-width:0.8;" x="162.782609" xlink:href="#m1af551f2f7" y="320.4"/>
      </g>
     </g>
     <g id="text_4">
      <!-- 3 -->
      <g transform="translate(160.282609 334.34375)scale(0.1 -0.1)">
       <defs>
        <path d="M 5.078125 53.609375 
Q 7.90625 60.296875 12.21875 63.9375 
Q 16.546875 67.578125 23 67.578125 
Q 30.953125 67.578125 35.203125 62.40625 
Q 38.421875 58.546875 38.421875 54.15625 
Q 38.421875 46.921875 29.34375 39.203125 
Q 35.453125 36.8125 38.578125 32.375 
Q 41.703125 27.9375 41.703125 21.921875 
Q 41.703125 13.328125 36.234375 7.03125 
Q 29.109375 -1.171875 15.578125 -1.171875 
Q 8.890625 -1.171875 6.46875 0.484375 
Q 4.046875 2.15625 4.046875 4.046875 
Q 4.046875 5.46875 5.1875 6.546875 
Q 6.34375 7.625 7.953125 7.625 
Q 9.1875 7.625 10.453125 7.234375 
Q 11.28125 6.984375 14.203125 5.4375 
Q 17.140625 3.90625 18.265625 3.609375 
Q 20.0625 3.078125 22.125 3.078125 
Q 27.09375 3.078125 30.78125 6.9375 
Q 34.46875 10.796875 34.46875 16.0625 
Q 34.46875 19.921875 32.765625 23.578125 
Q 31.5 26.3125 29.984375 27.734375 
Q 27.875 29.6875 24.21875 31.265625 
Q 20.5625 32.859375 16.75 32.859375 
L 15.1875 32.859375 
L 15.1875 34.328125 
Q 19.046875 34.8125 22.921875 37.109375 
Q 26.8125 39.40625 28.5625 42.625 
Q 30.328125 45.84375 30.328125 49.703125 
Q 30.328125 54.734375 27.171875 57.828125 
Q 24.03125 60.9375 19.34375 60.9375 
Q 11.765625 60.9375 6.6875 52.828125 
z
" id="TimesNewRomanPSMT-51"/>
       </defs>
       <use xlink:href="#TimesNewRomanPSMT-51"/>
      </g>
     </g>
    </g>
    <g id="xtick_5">
     <g id="line2d_5">
      <g>
       <use style="stroke:#000000;stroke-width:0.8;" x="187.043478" xlink:href="#m1af551f2f7" y="320.4"/>
      </g>
     </g>
     <g id="text_5">
      <!-- 4 -->
      <g transform="translate(184.543478 334.34375)scale(0.1 -0.1)">
       <defs>
        <path d="M 46.53125 24.421875 
L 46.53125 17.484375 
L 37.640625 17.484375 
L 37.640625 0 
L 29.59375 0 
L 29.59375 17.484375 
L 1.5625 17.484375 
L 1.5625 23.734375 
L 32.28125 67.578125 
L 37.640625 67.578125 
L 37.640625 24.421875 
z
M 29.59375 24.421875 
L 29.59375 57.28125 
L 6.34375 24.421875 
z
" id="TimesNewRomanPSMT-52"/>
       </defs>
       <use xlink:href="#TimesNewRomanPSMT-52"/>
      </g>
     </g>
    </g>
    <g id="xtick_6">
     <g id="line2d_6">
      <g>
       <use style="stroke:#000000;stroke-width:0.8;" x="211.304348" xlink:href="#m1af551f2f7" y="320.4"/>
      </g>
     </g>
     <g id="text_6">
      <!-- 5 -->
      <g transform="translate(208.804348 334.34375)scale(0.1 -0.1)">
       <defs>
        <path d="M 43.40625 66.21875 
L 39.59375 57.90625 
L 19.671875 57.90625 
L 15.328125 49.03125 
Q 28.265625 47.125 35.84375 39.40625 
Q 42.328125 32.765625 42.328125 23.78125 
Q 42.328125 18.5625 40.203125 14.109375 
Q 38.09375 9.671875 34.859375 6.546875 
Q 31.640625 3.421875 27.6875 1.515625 
Q 22.078125 -1.171875 16.15625 -1.171875 
Q 10.203125 -1.171875 7.484375 0.84375 
Q 4.78125 2.875 4.78125 5.328125 
Q 4.78125 6.6875 5.90625 7.734375 
Q 7.03125 8.796875 8.734375 8.796875 
Q 10.015625 8.796875 10.96875 8.40625 
Q 11.921875 8.015625 14.203125 6.390625 
Q 17.875 3.859375 21.625 3.859375 
Q 27.34375 3.859375 31.65625 8.171875 
Q 35.984375 12.5 35.984375 18.703125 
Q 35.984375 24.703125 32.125 29.90625 
Q 28.265625 35.109375 21.484375 37.9375 
Q 16.15625 40.140625 6.984375 40.484375 
L 19.671875 66.21875 
z
" id="TimesNewRomanPSMT-53"/>
       </defs>
       <use xlink:href="#TimesNewRomanPSMT-53"/>
      </g>
     </g>
    </g>
    <g id="xtick_7">
     <g id="line2d_7">
      <g>
       <use style="stroke:#000000;stroke-width:0.8;" x="235.565217" xlink:href="#m1af551f2f7" y="320.4"/>
      </g>
     </g>
     <g id="text_7">
      <!-- 6 -->
      <g transform="translate(233.065217 334.34375)scale(0.1 -0.1)">
       <defs>
        <path d="M 44.828125 67.578125 
L 44.828125 65.765625 
Q 38.375 65.140625 34.296875 63.203125 
Q 30.21875 61.28125 26.234375 57.328125 
Q 22.265625 53.375 19.65625 48.515625 
Q 17.046875 43.65625 15.28125 36.96875 
Q 22.3125 41.796875 29.390625 41.796875 
Q 36.1875 41.796875 41.15625 36.328125 
Q 46.140625 30.859375 46.140625 22.265625 
Q 46.140625 13.96875 41.109375 7.125 
Q 35.0625 -1.171875 25.09375 -1.171875 
Q 18.3125 -1.171875 13.578125 3.328125 
Q 4.296875 12.0625 4.296875 25.984375 
Q 4.296875 34.859375 7.859375 42.859375 
Q 11.421875 50.875 18.03125 57.078125 
Q 24.65625 63.28125 30.703125 65.421875 
Q 36.765625 67.578125 42 67.578125 
z
M 14.453125 33.40625 
Q 13.578125 26.8125 13.578125 22.75 
Q 13.578125 18.0625 15.3125 12.5625 
Q 17.046875 7.078125 20.453125 3.859375 
Q 22.953125 1.5625 26.515625 1.5625 
Q 30.765625 1.5625 34.109375 5.5625 
Q 37.453125 9.578125 37.453125 17 
Q 37.453125 25.34375 34.125 31.4375 
Q 30.8125 37.546875 24.703125 37.546875 
Q 22.859375 37.546875 20.734375 36.765625 
Q 18.609375 35.984375 14.453125 33.40625 
z
" id="TimesNewRomanPSMT-54"/>
       </defs>
       <use xlink:href="#TimesNewRomanPSMT-54"/>
      </g>
     </g>
    </g>
    <g id="xtick_8">
     <g id="line2d_8">
      <g>
       <use style="stroke:#000000;stroke-width:0.8;" x="259.826087" xlink:href="#m1af551f2f7" y="320.4"/>
      </g>
     </g>
     <g id="text_8">
      <!-- 7 -->
      <g transform="translate(257.326087 334.34375)scale(0.1 -0.1)">
       <defs>
        <path d="M 10.0625 66.21875 
L 45.5625 66.21875 
L 45.5625 64.359375 
L 23.484375 -1.375 
L 18.015625 -1.375 
L 37.796875 58.25 
L 19.578125 58.25 
Q 14.0625 58.25 11.71875 56.9375 
Q 7.625 54.6875 5.125 50 
L 3.71875 50.53125 
z
" id="TimesNewRomanPSMT-55"/>
       </defs>
       <use xlink:href="#TimesNewRomanPSMT-55"/>
      </g>
     </g>
    </g>
    <g id="xtick_9">
     <g id="line2d_9">
      <g>
       <use style="stroke:#000000;stroke-width:0.8;" x="284.086957" xlink:href="#m1af551f2f7" y="320.4"/>
      </g>
     </g>
     <g id="text_9">
      <!-- 8 -->
      <g transform="translate(281.586957 334.34375)scale(0.1 -0.1)">
       <defs>
        <path d="M 19.1875 33.34375 
Q 11.328125 39.796875 9.046875 43.703125 
Q 6.78125 47.609375 6.78125 51.8125 
Q 6.78125 58.25 11.765625 62.90625 
Q 16.75 67.578125 25 67.578125 
Q 33.015625 67.578125 37.890625 63.234375 
Q 42.78125 58.890625 42.78125 53.328125 
Q 42.78125 49.609375 40.140625 45.75 
Q 37.5 41.890625 29.15625 36.671875 
Q 37.75 30.03125 40.53125 26.21875 
Q 44.234375 21.234375 44.234375 15.71875 
Q 44.234375 8.734375 38.90625 3.78125 
Q 33.59375 -1.171875 24.953125 -1.171875 
Q 15.53125 -1.171875 10.25 4.734375 
Q 6.0625 9.46875 6.0625 15.09375 
Q 6.0625 19.484375 9.015625 23.796875 
Q 11.96875 28.125 19.1875 33.34375 
z
M 26.859375 38.578125 
Q 32.71875 43.84375 34.28125 46.890625 
Q 35.84375 49.953125 35.84375 53.8125 
Q 35.84375 58.9375 32.953125 61.84375 
Q 30.078125 64.75 25.09375 64.75 
Q 20.125 64.75 17 61.859375 
Q 13.875 58.984375 13.875 55.125 
Q 13.875 52.59375 15.15625 50.046875 
Q 16.453125 47.515625 18.84375 45.21875 
z
M 21.484375 31.5 
Q 17.4375 28.078125 15.484375 24.046875 
Q 13.53125 20.015625 13.53125 15.328125 
Q 13.53125 9.03125 16.96875 5.25 
Q 20.40625 1.46875 25.734375 1.46875 
Q 31 1.46875 34.171875 4.4375 
Q 37.359375 7.421875 37.359375 11.671875 
Q 37.359375 15.1875 35.5 17.96875 
Q 32.03125 23.140625 21.484375 31.5 
z
" id="TimesNewRomanPSMT-56"/>
       </defs>
       <use xlink:href="#TimesNewRomanPSMT-56"/>
      </g>
     </g>
    </g>
    <g id="xtick_10">
     <g id="line2d_10">
      <g>
       <use style="stroke:#000000;stroke-width:0.8;" x="308.347826" xlink:href="#m1af551f2f7" y="320.4"/>
      </g>
     </g>
     <g id="text_10">
      <!-- 9 -->
      <g transform="translate(305.847826 334.34375)scale(0.1 -0.1)">
       <defs>
        <path d="M 5.28125 -1.375 
L 5.28125 0.4375 
Q 11.625 0.53125 17.09375 3.390625 
Q 22.5625 6.25 27.65625 13.375 
Q 32.765625 20.515625 34.765625 29.046875 
Q 27.09375 24.125 20.90625 24.125 
Q 13.921875 24.125 8.9375 29.515625 
Q 3.953125 34.90625 3.953125 43.84375 
Q 3.953125 52.546875 8.9375 59.328125 
Q 14.9375 67.578125 24.609375 67.578125 
Q 32.765625 67.578125 38.578125 60.84375 
Q 45.703125 52.484375 45.703125 40.234375 
Q 45.703125 29.203125 40.28125 19.65625 
Q 34.859375 10.109375 25.203125 3.8125 
Q 17.328125 -1.375 8.0625 -1.375 
z
M 35.546875 32.671875 
Q 36.421875 39.015625 36.421875 42.828125 
Q 36.421875 47.5625 34.8125 53.046875 
Q 33.203125 58.546875 30.25 61.46875 
Q 27.296875 64.40625 23.53125 64.40625 
Q 19.1875 64.40625 15.90625 60.5 
Q 12.640625 56.59375 12.640625 48.875 
Q 12.640625 38.578125 17 32.765625 
Q 20.171875 28.5625 24.8125 28.5625 
Q 27.046875 28.5625 30.125 29.640625 
Q 33.203125 30.71875 35.546875 32.671875 
z
" id="TimesNewRomanPSMT-57"/>
       </defs>
       <use xlink:href="#TimesNewRomanPSMT-57"/>
      </g>
     </g>
    </g>
    <g id="xtick_11">
     <g id="line2d_11">
      <g>
       <use style="stroke:#000000;stroke-width:0.8;" x="332.608696" xlink:href="#m1af551f2f7" y="320.4"/>
      </g>
     </g>
     <g id="text_11">
      <!-- 10 -->
      <g transform="translate(327.608696 334.34375)scale(0.1 -0.1)">
       <use xlink:href="#TimesNewRomanPSMT-49"/>
       <use x="50" xlink:href="#TimesNewRomanPSMT-48"/>
      </g>
     </g>
    </g>
    <g id="xtick_12">
     <g id="line2d_12">
      <g>
       <use style="stroke:#000000;stroke-width:0.8;" x="356.869565" xlink:href="#m1af551f2f7" y="320.4"/>
      </g>
     </g>
     <g id="text_12">
      <!-- 11 -->
      <g transform="translate(352.057065 334.34375)scale(0.1 -0.1)">
       <use xlink:href="#TimesNewRomanPSMT-49"/>
       <use x="46.25" xlink:href="#TimesNewRomanPSMT-49"/>
      </g>
     </g>
    </g>
    <g id="xtick_13">
     <g id="line2d_13">
      <g>
       <use style="stroke:#000000;stroke-width:0.8;" x="381.130435" xlink:href="#m1af551f2f7" y="320.4"/>
      </g>
     </g>
     <g id="text_13">
      <!-- 12 -->
      <g transform="translate(376.130435 334.34375)scale(0.1 -0.1)">
       <use xlink:href="#TimesNewRomanPSMT-49"/>
       <use x="50" xlink:href="#TimesNewRomanPSMT-50"/>
      </g>
     </g>
    </g>
    <g id="xtick_14">
     <g id="line2d_14">
      <g>
       <use style="stroke:#000000;stroke-width:0.8;" x="405.391304" xlink:href="#m1af551f2f7" y="320.4"/>
      </g>
     </g>
     <g id="text_14">
      <!-- 13 -->
      <g transform="translate(400.391304 334.34375)scale(0.1 -0.1)">
       <use xlink:href="#TimesNewRomanPSMT-49"/>
       <use x="50" xlink:href="#TimesNewRomanPSMT-51"/>
      </g>
     </g>
    </g>
    <g id="xtick_15">
     <g id="line2d_15">
      <g>
       <use style="stroke:#000000;stroke-width:0.8;" x="429.652174" xlink:href="#m1af551f2f7" y="320.4"/>
      </g>
     </g>
     <g id="text_15">
      <!-- 14 -->
      <g transform="translate(424.652174 334.34375)scale(0.1 -0.1)">
       <use xlink:href="#TimesNewRomanPSMT-49"/>
       <use x="50" xlink:href="#TimesNewRomanPSMT-52"/>
      </g>
     </g>
    </g>
    <g id="xtick_16">
     <g id="line2d_16">
      <g>
       <use style="stroke:#000000;stroke-width:0.8;" x="453.913043" xlink:href="#m1af551f2f7" y="320.4"/>
      </g>
     </g>
     <g id="text_16">
      <!-- 15 -->
      <g transform="translate(448.913043 334.34375)scale(0.1 -0.1)">
       <use xlink:href="#TimesNewRomanPSMT-49"/>
       <use x="50" xlink:href="#TimesNewRomanPSMT-53"/>
      </g>
     </g>
    </g>
    <g id="xtick_17">
     <g id="line2d_17">
      <g>
       <use style="stroke:#000000;stroke-width:0.8;" x="478.173913" xlink:href="#m1af551f2f7" y="320.4"/>
      </g>
     </g>
     <g id="text_17">
      <!-- 16 -->
      <g transform="translate(473.173913 334.34375)scale(0.1 -0.1)">
       <use xlink:href="#TimesNewRomanPSMT-49"/>
       <use x="50" xlink:href="#TimesNewRomanPSMT-54"/>
      </g>
     </g>
    </g>
    <g id="xtick_18">
     <g id="line2d_18">
      <g>
       <use style="stroke:#000000;stroke-width:0.8;" x="502.434783" xlink:href="#m1af551f2f7" y="320.4"/>
      </g>
     </g>
     <g id="text_18">
      <!-- 17 -->
      <g transform="translate(497.434783 334.34375)scale(0.1 -0.1)">
       <use xlink:href="#TimesNewRomanPSMT-49"/>
       <use x="50" xlink:href="#TimesNewRomanPSMT-55"/>
      </g>
     </g>
    </g>
    <g id="xtick_19">
     <g id="line2d_19">
      <g>
       <use style="stroke:#000000;stroke-width:0.8;" x="526.695652" xlink:href="#m1af551f2f7" y="320.4"/>
      </g>
     </g>
     <g id="text_19">
      <!-- 18 -->
      <g transform="translate(521.695652 334.34375)scale(0.1 -0.1)">
       <use xlink:href="#TimesNewRomanPSMT-49"/>
       <use x="50" xlink:href="#TimesNewRomanPSMT-56"/>
      </g>
     </g>
    </g>
    <g id="xtick_20">
     <g id="line2d_20">
      <g>
       <use style="stroke:#000000;stroke-width:0.8;" x="550.956522" xlink:href="#m1af551f2f7" y="320.4"/>
      </g>
     </g>
     <g id="text_20">
      <!-- 19 -->
      <g transform="translate(545.956522 334.34375)scale(0.1 -0.1)">
       <use xlink:href="#TimesNewRomanPSMT-49"/>
       <use x="50" xlink:href="#TimesNewRomanPSMT-57"/>
      </g>
     </g>
    </g>
    <g id="xtick_21">
     <g id="line2d_21">
      <g>
       <use style="stroke:#000000;stroke-width:0.8;" x="575.217391" xlink:href="#m1af551f2f7" y="320.4"/>
      </g>
     </g>
     <g id="text_21">
      <!-- 20 -->
      <g transform="translate(570.217391 334.34375)scale(0.1 -0.1)">
       <use xlink:href="#TimesNewRomanPSMT-50"/>
       <use x="50" xlink:href="#TimesNewRomanPSMT-48"/>
      </g>
     </g>
    </g>
    <g id="xtick_22">
     <g id="line2d_22">
      <g>
       <use style="stroke:#000000;stroke-width:0.8;" x="599.478261" xlink:href="#m1af551f2f7" y="320.4"/>
      </g>
     </g>
     <g id="text_22">
      <!-- 21 -->
      <g transform="translate(594.478261 334.34375)scale(0.1 -0.1)">
       <use xlink:href="#TimesNewRomanPSMT-50"/>
       <use x="50" xlink:href="#TimesNewRomanPSMT-49"/>
      </g>
     </g>
    </g>
    <g id="xtick_23">
     <g id="line2d_23">
      <g>
       <use style="stroke:#000000;stroke-width:0.8;" x="623.73913" xlink:href="#m1af551f2f7" y="320.4"/>
      </g>
     </g>
     <g id="text_23">
      <!-- 22 -->
      <g transform="translate(618.73913 334.34375)scale(0.1 -0.1)">
       <use xlink:href="#TimesNewRomanPSMT-50"/>
       <use x="50" xlink:href="#TimesNewRomanPSMT-50"/>
      </g>
     </g>
    </g>
    <g id="xtick_24">
     <g id="line2d_24">
      <g>
       <use style="stroke:#000000;stroke-width:0.8;" x="648" xlink:href="#m1af551f2f7" y="320.4"/>
      </g>
     </g>
     <g id="text_24">
      <!-- 23 -->
      <g transform="translate(643 334.34375)scale(0.1 -0.1)">
       <use xlink:href="#TimesNewRomanPSMT-50"/>
       <use x="50" xlink:href="#TimesNewRomanPSMT-51"/>
      </g>
     </g>
    </g>
    <g id="text_25">
     <!-- hour -->
     <g transform="translate(359.835156 347.426562)scale(0.1 -0.1)">
      <defs>
       <path d="M 16.265625 69.4375 
L 16.265625 36.71875 
Q 21.6875 42.671875 24.859375 44.359375 
Q 28.03125 46.046875 31.203125 46.046875 
Q 35.015625 46.046875 37.75 43.9375 
Q 40.484375 41.84375 41.796875 37.359375 
Q 42.71875 34.234375 42.71875 25.921875 
L 42.71875 10.109375 
Q 42.71875 5.859375 43.40625 4.296875 
Q 43.890625 3.125 45.0625 2.4375 
Q 46.234375 1.765625 49.359375 1.765625 
L 49.359375 0 
L 27.390625 0 
L 27.390625 1.765625 
L 28.421875 1.765625 
Q 31.546875 1.765625 32.765625 2.703125 
Q 33.984375 3.65625 34.46875 5.515625 
Q 34.625 6.296875 34.625 10.109375 
L 34.625 25.921875 
Q 34.625 33.25 33.859375 35.546875 
Q 33.109375 37.84375 31.4375 38.984375 
Q 29.78125 40.140625 27.4375 40.140625 
Q 25.046875 40.140625 22.453125 38.859375 
Q 19.875 37.59375 16.265625 33.734375 
L 16.265625 10.109375 
Q 16.265625 5.515625 16.765625 4.390625 
Q 17.28125 3.265625 18.671875 2.515625 
Q 20.0625 1.765625 23.484375 1.765625 
L 23.484375 0 
L 1.3125 0 
L 1.3125 1.765625 
Q 4.296875 1.765625 6 2.6875 
Q 6.984375 3.171875 7.5625 4.53125 
Q 8.15625 5.90625 8.15625 10.109375 
L 8.15625 50.59375 
Q 8.15625 58.25 7.78125 60 
Q 7.421875 61.765625 6.65625 62.390625 
Q 5.90625 63.03125 4.640625 63.03125 
Q 3.609375 63.03125 1.3125 62.25 
L 0.640625 63.96875 
L 14.015625 69.4375 
z
" id="TimesNewRomanPSMT-104"/>
       <path d="M 25 46.046875 
Q 35.15625 46.046875 41.3125 38.328125 
Q 46.53125 31.734375 46.53125 23.1875 
Q 46.53125 17.1875 43.640625 11.03125 
Q 40.765625 4.890625 35.71875 1.75 
Q 30.671875 -1.375 24.46875 -1.375 
Q 14.359375 -1.375 8.40625 6.6875 
Q 3.375 13.484375 3.375 21.921875 
Q 3.375 28.078125 6.421875 34.15625 
Q 9.46875 40.234375 14.453125 43.140625 
Q 19.4375 46.046875 25 46.046875 
z
M 23.484375 42.875 
Q 20.90625 42.875 18.28125 41.328125 
Q 15.671875 39.796875 14.0625 35.9375 
Q 12.453125 32.078125 12.453125 26.03125 
Q 12.453125 16.265625 16.328125 9.171875 
Q 20.21875 2.09375 26.5625 2.09375 
Q 31.296875 2.09375 34.375 6 
Q 37.453125 9.90625 37.453125 19.4375 
Q 37.453125 31.34375 32.328125 38.1875 
Q 28.859375 42.875 23.484375 42.875 
z
" id="TimesNewRomanPSMT-111"/>
       <path d="M 42.328125 44.734375 
L 42.328125 17.625 
Q 42.328125 9.859375 42.6875 8.125 
Q 43.0625 6.390625 43.859375 5.703125 
Q 44.671875 5.03125 45.75 5.03125 
Q 47.265625 5.03125 49.171875 5.859375 
L 49.859375 4.15625 
L 36.46875 -1.375 
L 34.28125 -1.375 
L 34.28125 8.109375 
Q 28.515625 1.859375 25.484375 0.234375 
Q 22.46875 -1.375 19.09375 -1.375 
Q 15.328125 -1.375 12.5625 0.796875 
Q 9.8125 2.984375 8.734375 6.390625 
Q 7.671875 9.8125 7.671875 16.0625 
L 7.671875 36.03125 
Q 7.671875 39.203125 6.984375 40.421875 
Q 6.296875 41.65625 4.953125 42.3125 
Q 3.609375 42.96875 0.09375 42.921875 
L 0.09375 44.734375 
L 15.765625 44.734375 
L 15.765625 14.796875 
Q 15.765625 8.546875 17.9375 6.59375 
Q 20.125 4.640625 23.1875 4.640625 
Q 25.296875 4.640625 27.953125 5.953125 
Q 30.609375 7.28125 34.28125 10.984375 
L 34.28125 36.328125 
Q 34.28125 40.140625 32.890625 41.484375 
Q 31.5 42.828125 27.09375 42.921875 
L 27.09375 44.734375 
z
" id="TimesNewRomanPSMT-117"/>
       <path d="M 16.21875 46.046875 
L 16.21875 35.984375 
Q 21.828125 46.046875 27.734375 46.046875 
Q 30.421875 46.046875 32.171875 44.40625 
Q 33.9375 42.78125 33.9375 40.625 
Q 33.9375 38.71875 32.65625 37.390625 
Q 31.390625 36.078125 29.640625 36.078125 
Q 27.9375 36.078125 25.8125 37.765625 
Q 23.6875 39.453125 22.65625 39.453125 
Q 21.78125 39.453125 20.75 38.484375 
Q 18.5625 36.46875 16.21875 31.890625 
L 16.21875 10.453125 
Q 16.21875 6.734375 17.140625 4.828125 
Q 17.78125 3.515625 19.390625 2.640625 
Q 21 1.765625 24.03125 1.765625 
L 24.03125 0 
L 1.125 0 
L 1.125 1.765625 
Q 4.546875 1.765625 6.203125 2.828125 
Q 7.421875 3.609375 7.90625 5.328125 
Q 8.15625 6.15625 8.15625 10.0625 
L 8.15625 27.390625 
Q 8.15625 35.203125 7.828125 36.6875 
Q 7.515625 38.1875 6.65625 38.859375 
Q 5.8125 39.546875 4.546875 39.546875 
Q 3.03125 39.546875 1.125 38.8125 
L 0.640625 40.578125 
L 14.15625 46.046875 
z
" id="TimesNewRomanPSMT-114"/>
      </defs>
      <use xlink:href="#TimesNewRomanPSMT-104"/>
      <use x="50" xlink:href="#TimesNewRomanPSMT-111"/>
      <use x="100" xlink:href="#TimesNewRomanPSMT-117"/>
      <use x="150" xlink:href="#TimesNewRomanPSMT-114"/>
     </g>
    </g>
   </g>
   <g id="matplotlib.axis_2">
    <g id="ytick_1">
     <g id="line2d_25">
      <defs>
       <path d="M 0 0 
L -3.5 0 
" id="mbfba127d9d" style="stroke:#000000;stroke-width:0.8;"/>
      </defs>
      <g>
       <use style="stroke:#000000;stroke-width:0.8;" x="90" xlink:href="#mbfba127d9d" y="281.505286"/>
      </g>
     </g>
     <g id="text_26">
      <!-- 1.7 -->
      <g transform="translate(70.5 284.977161)scale(0.1 -0.1)">
       <defs>
        <path d="M 12.5 9.46875 
Q 14.796875 9.46875 16.359375 7.875 
Q 17.921875 6.296875 17.921875 4.046875 
Q 17.921875 1.8125 16.328125 0.21875 
Q 14.75 -1.375 12.5 -1.375 
Q 10.25 -1.375 8.65625 0.21875 
Q 7.078125 1.8125 7.078125 4.046875 
Q 7.078125 6.34375 8.65625 7.90625 
Q 10.25 9.46875 12.5 9.46875 
z
" id="TimesNewRomanPSMT-46"/>
       </defs>
       <use xlink:href="#TimesNewRomanPSMT-49"/>
       <use x="50" xlink:href="#TimesNewRomanPSMT-46"/>
       <use x="75" xlink:href="#TimesNewRomanPSMT-55"/>
      </g>
     </g>
    </g>
    <g id="ytick_2">
     <g id="line2d_26">
      <g>
       <use style="stroke:#000000;stroke-width:0.8;" x="90" xlink:href="#mbfba127d9d" y="240.620317"/>
      </g>
     </g>
     <g id="text_27">
      <!-- 1.8 -->
      <g transform="translate(70.5 244.092192)scale(0.1 -0.1)">
       <use xlink:href="#TimesNewRomanPSMT-49"/>
       <use x="50" xlink:href="#TimesNewRomanPSMT-46"/>
       <use x="75" xlink:href="#TimesNewRomanPSMT-56"/>
      </g>
     </g>
    </g>
    <g id="ytick_3">
     <g id="line2d_27">
      <g>
       <use style="stroke:#000000;stroke-width:0.8;" x="90" xlink:href="#mbfba127d9d" y="199.735349"/>
      </g>
     </g>
     <g id="text_28">
      <!-- 1.9 -->
      <g transform="translate(70.5 203.207224)scale(0.1 -0.1)">
       <use xlink:href="#TimesNewRomanPSMT-49"/>
       <use x="50" xlink:href="#TimesNewRomanPSMT-46"/>
       <use x="75" xlink:href="#TimesNewRomanPSMT-57"/>
      </g>
     </g>
    </g>
    <g id="ytick_4">
     <g id="line2d_28">
      <g>
       <use style="stroke:#000000;stroke-width:0.8;" x="90" xlink:href="#mbfba127d9d" y="158.85038"/>
      </g>
     </g>
     <g id="text_29">
      <!-- 2.0 -->
      <g transform="translate(70.5 162.322255)scale(0.1 -0.1)">
       <use xlink:href="#TimesNewRomanPSMT-50"/>
       <use x="50" xlink:href="#TimesNewRomanPSMT-46"/>
       <use x="75" xlink:href="#TimesNewRomanPSMT-48"/>
      </g>
     </g>
    </g>
    <g id="ytick_5">
     <g id="line2d_29">
      <g>
       <use style="stroke:#000000;stroke-width:0.8;" x="90" xlink:href="#mbfba127d9d" y="117.965411"/>
      </g>
     </g>
     <g id="text_30">
      <!-- 2.1 -->
      <g transform="translate(70.5 121.437286)scale(0.1 -0.1)">
       <use xlink:href="#TimesNewRomanPSMT-50"/>
       <use x="50" xlink:href="#TimesNewRomanPSMT-46"/>
       <use x="75" xlink:href="#TimesNewRomanPSMT-49"/>
      </g>
     </g>
    </g>
    <g id="ytick_6">
     <g id="line2d_30">
      <g>
       <use style="stroke:#000000;stroke-width:0.8;" x="90" xlink:href="#mbfba127d9d" y="77.080443"/>
      </g>
     </g>
     <g id="text_31">
      <!-- 2.2 -->
      <g transform="translate(70.5 80.552318)scale(0.1 -0.1)">
       <use xlink:href="#TimesNewRomanPSMT-50"/>
       <use x="50" xlink:href="#TimesNewRomanPSMT-46"/>
       <use x="75" xlink:href="#TimesNewRomanPSMT-50"/>
      </g>
     </g>
    </g>
    <g id="text_32">
     <!-- The number of requests -->
     <g transform="translate(64.360937 229.146875)rotate(-90)scale(0.1 -0.1)">
      <defs>
       <path d="M 57.859375 66.21875 
L 58.59375 50.6875 
L 56.734375 50.6875 
Q 56.203125 54.78125 55.28125 56.546875 
Q 53.765625 59.375 51.25 60.71875 
Q 48.734375 62.0625 44.625 62.0625 
L 35.296875 62.0625 
L 35.296875 11.46875 
Q 35.296875 5.375 36.625 3.859375 
Q 38.484375 1.8125 42.328125 1.8125 
L 44.625 1.8125 
L 44.625 0 
L 16.546875 0 
L 16.546875 1.8125 
L 18.890625 1.8125 
Q 23.09375 1.8125 24.859375 4.34375 
Q 25.921875 5.90625 25.921875 11.46875 
L 25.921875 62.0625 
L 17.96875 62.0625 
Q 13.328125 62.0625 11.375 61.375 
Q 8.84375 60.453125 7.03125 57.8125 
Q 5.21875 55.171875 4.890625 50.6875 
L 3.03125 50.6875 
L 3.8125 66.21875 
z
" id="TimesNewRomanPSMT-84"/>
       <path d="M 10.640625 27.875 
Q 10.59375 17.921875 15.484375 12.25 
Q 20.359375 6.59375 26.953125 6.59375 
Q 31.34375 6.59375 34.59375 9 
Q 37.84375 11.421875 40.046875 17.28125 
L 41.546875 16.3125 
Q 40.53125 9.625 35.59375 4.125 
Q 30.671875 -1.375 23.25 -1.375 
Q 15.1875 -1.375 9.453125 4.90625 
Q 3.71875 11.1875 3.71875 21.78125 
Q 3.71875 33.25 9.59375 39.671875 
Q 15.484375 46.09375 24.359375 46.09375 
Q 31.890625 46.09375 36.71875 41.140625 
Q 41.546875 36.1875 41.546875 27.875 
z
M 10.640625 30.71875 
L 31.34375 30.71875 
Q 31.109375 35.015625 30.328125 36.765625 
Q 29.109375 39.5 26.6875 41.0625 
Q 24.265625 42.625 21.625 42.625 
Q 17.578125 42.625 14.375 39.46875 
Q 11.1875 36.328125 10.640625 30.71875 
z
" id="TimesNewRomanPSMT-101"/>
       <path id="TimesNewRomanPSMT-32"/>
       <path d="M 16.15625 36.578125 
Q 24.03125 46.046875 31.15625 46.046875 
Q 34.8125 46.046875 37.453125 44.21875 
Q 40.09375 42.390625 41.65625 38.1875 
Q 42.71875 35.25 42.71875 29.203125 
L 42.71875 10.109375 
Q 42.71875 5.859375 43.40625 4.34375 
Q 43.953125 3.125 45.140625 2.4375 
Q 46.34375 1.765625 49.5625 1.765625 
L 49.5625 0 
L 27.4375 0 
L 27.4375 1.765625 
L 28.375 1.765625 
Q 31.5 1.765625 32.734375 2.703125 
Q 33.984375 3.65625 34.46875 5.515625 
Q 34.671875 6.25 34.671875 10.109375 
L 34.671875 28.421875 
Q 34.671875 34.515625 33.078125 37.28125 
Q 31.5 40.046875 27.734375 40.046875 
Q 21.921875 40.046875 16.15625 33.6875 
L 16.15625 10.109375 
Q 16.15625 5.5625 16.703125 4.5 
Q 17.390625 3.078125 18.578125 2.421875 
Q 19.78125 1.765625 23.4375 1.765625 
L 23.4375 0 
L 1.3125 0 
L 1.3125 1.765625 
L 2.296875 1.765625 
Q 5.71875 1.765625 6.90625 3.484375 
Q 8.109375 5.21875 8.109375 10.109375 
L 8.109375 26.703125 
Q 8.109375 34.765625 7.734375 36.515625 
Q 7.375 38.28125 6.609375 38.90625 
Q 5.859375 39.546875 4.59375 39.546875 
Q 3.21875 39.546875 1.3125 38.8125 
L 0.59375 40.578125 
L 14.0625 46.046875 
L 16.15625 46.046875 
z
" id="TimesNewRomanPSMT-110"/>
       <path d="M 16.40625 36.53125 
Q 21.296875 41.40625 22.171875 42.140625 
Q 24.359375 44 26.890625 45.015625 
Q 29.4375 46.046875 31.9375 46.046875 
Q 36.140625 46.046875 39.15625 43.59375 
Q 42.1875 41.15625 43.21875 36.53125 
Q 48.25 42.390625 51.703125 44.21875 
Q 55.171875 46.046875 58.84375 46.046875 
Q 62.40625 46.046875 65.15625 44.21875 
Q 67.921875 42.390625 69.53125 38.234375 
Q 70.609375 35.40625 70.609375 29.34375 
L 70.609375 10.109375 
Q 70.609375 5.90625 71.234375 4.34375 
Q 71.734375 3.265625 73.046875 2.515625 
Q 74.359375 1.765625 77.34375 1.765625 
L 77.34375 0 
L 55.28125 0 
L 55.28125 1.765625 
L 56.203125 1.765625 
Q 59.078125 1.765625 60.6875 2.875 
Q 61.8125 3.65625 62.3125 5.375 
Q 62.5 6.203125 62.5 10.109375 
L 62.5 29.34375 
Q 62.5 34.8125 61.1875 37.0625 
Q 59.28125 40.1875 55.078125 40.1875 
Q 52.484375 40.1875 49.875 38.890625 
Q 47.265625 37.59375 43.5625 34.078125 
L 43.453125 33.546875 
L 43.5625 31.453125 
L 43.5625 10.109375 
Q 43.5625 5.515625 44.0625 4.390625 
Q 44.578125 3.265625 45.984375 2.515625 
Q 47.40625 1.765625 50.828125 1.765625 
L 50.828125 0 
L 28.21875 0 
L 28.21875 1.765625 
Q 31.9375 1.765625 33.328125 2.640625 
Q 34.71875 3.515625 35.25 5.28125 
Q 35.5 6.109375 35.5 10.109375 
L 35.5 29.34375 
Q 35.5 34.8125 33.890625 37.203125 
Q 31.734375 40.328125 27.875 40.328125 
Q 25.25 40.328125 22.65625 38.921875 
Q 18.609375 36.765625 16.40625 34.078125 
L 16.40625 10.109375 
Q 16.40625 5.71875 17.015625 4.390625 
Q 17.625 3.078125 18.8125 2.421875 
Q 20.015625 1.765625 23.6875 1.765625 
L 23.6875 0 
L 1.5625 0 
L 1.5625 1.765625 
Q 4.640625 1.765625 5.859375 2.421875 
Q 7.078125 3.078125 7.703125 4.515625 
Q 8.34375 5.953125 8.34375 10.109375 
L 8.34375 27.203125 
Q 8.34375 34.578125 7.90625 36.71875 
Q 7.5625 38.328125 6.828125 38.9375 
Q 6.109375 39.546875 4.828125 39.546875 
Q 3.46875 39.546875 1.5625 38.8125 
L 0.828125 40.578125 
L 14.3125 46.046875 
L 16.40625 46.046875 
z
" id="TimesNewRomanPSMT-109"/>
       <path d="M 15.375 37.015625 
Q 21.875 46.046875 29.390625 46.046875 
Q 36.28125 46.046875 41.40625 40.15625 
Q 46.53125 34.28125 46.53125 24.078125 
Q 46.53125 12.15625 38.625 4.890625 
Q 31.84375 -1.375 23.484375 -1.375 
Q 19.578125 -1.375 15.546875 0.046875 
Q 11.53125 1.46875 7.328125 4.296875 
L 7.328125 50.640625 
Q 7.328125 58.25 6.953125 60 
Q 6.59375 61.765625 5.8125 62.390625 
Q 5.03125 63.03125 3.859375 63.03125 
Q 2.484375 63.03125 0.4375 62.25 
L -0.25 63.96875 
L 13.1875 69.4375 
L 15.375 69.4375 
z
M 15.375 33.890625 
L 15.375 7.125 
Q 17.875 4.6875 20.53125 3.4375 
Q 23.1875 2.203125 25.984375 2.203125 
Q 30.421875 2.203125 34.25 7.078125 
Q 38.09375 11.96875 38.09375 21.296875 
Q 38.09375 29.890625 34.25 34.5 
Q 30.421875 39.109375 25.53125 39.109375 
Q 22.953125 39.109375 20.359375 37.796875 
Q 18.40625 36.8125 15.375 33.890625 
z
" id="TimesNewRomanPSMT-98"/>
       <path d="M 20.609375 41.21875 
L 20.609375 11.8125 
Q 20.609375 5.5625 21.96875 3.90625 
Q 23.78125 1.765625 26.8125 1.765625 
L 30.859375 1.765625 
L 30.859375 0 
L 4.15625 0 
L 4.15625 1.765625 
L 6.15625 1.765625 
Q 8.109375 1.765625 9.71875 2.734375 
Q 11.328125 3.71875 11.9375 5.375 
Q 12.546875 7.03125 12.546875 11.8125 
L 12.546875 41.21875 
L 3.859375 41.21875 
L 3.859375 44.734375 
L 12.546875 44.734375 
L 12.546875 47.65625 
Q 12.546875 54.34375 14.6875 58.984375 
Q 16.84375 63.625 21.265625 66.484375 
Q 25.6875 69.34375 31.203125 69.34375 
Q 36.328125 69.34375 40.625 66.015625 
Q 43.453125 63.8125 43.453125 61.078125 
Q 43.453125 59.625 42.1875 58.328125 
Q 40.921875 57.03125 39.453125 57.03125 
Q 38.328125 57.03125 37.078125 57.828125 
Q 35.84375 58.640625 34.03125 61.296875 
Q 32.234375 63.96875 30.71875 64.890625 
Q 29.203125 65.828125 27.34375 65.828125 
Q 25.09375 65.828125 23.53125 64.625 
Q 21.96875 63.421875 21.28125 60.90625 
Q 20.609375 58.40625 20.609375 47.953125 
L 20.609375 44.734375 
L 32.125 44.734375 
L 32.125 41.21875 
z
" id="TimesNewRomanPSMT-102"/>
       <path d="M 42.71875 46.046875 
L 42.71875 -11.46875 
Q 42.71875 -15.765625 43.296875 -16.984375 
Q 43.890625 -18.21875 45.140625 -18.890625 
Q 46.390625 -19.578125 50 -19.578125 
L 50 -21.390625 
L 27.4375 -21.390625 
L 27.4375 -19.578125 
L 28.375 -19.578125 
Q 31.109375 -19.578125 32.515625 -18.796875 
Q 33.5 -18.265625 34.078125 -16.875 
Q 34.671875 -15.484375 34.671875 -11.46875 
L 34.671875 7.765625 
Q 30.21875 2.484375 26.890625 0.546875 
Q 23.578125 -1.375 20.015625 -1.375 
Q 13.53125 -1.375 8.421875 4.53125 
Q 3.328125 10.453125 3.328125 20.359375 
Q 3.328125 31.734375 10.0625 38.890625 
Q 16.796875 46.046875 26.3125 46.046875 
Q 29.109375 46.046875 31.453125 45.265625 
Q 33.796875 44.484375 35.640625 42.921875 
Q 38.484375 44.28125 41.0625 46.046875 
z
M 34.671875 10.84375 
L 34.671875 31.84375 
Q 34.671875 35.5 33.71875 37.59375 
Q 32.765625 39.703125 30.3125 41.15625 
Q 27.875 42.625 24.8125 42.625 
Q 19.34375 42.625 15.4375 37.984375 
Q 11.53125 33.34375 11.53125 23.921875 
Q 11.53125 14.890625 15.5 10.203125 
Q 19.484375 5.515625 25.09375 5.515625 
Q 27.984375 5.515625 30.21875 6.765625 
Q 32.46875 8.015625 34.671875 10.84375 
z
" id="TimesNewRomanPSMT-113"/>
       <path d="M 32.03125 46.046875 
L 32.03125 30.8125 
L 30.421875 30.8125 
Q 28.5625 37.984375 25.65625 40.578125 
Q 22.75 43.171875 18.265625 43.171875 
Q 14.84375 43.171875 12.734375 41.359375 
Q 10.640625 39.546875 10.640625 37.359375 
Q 10.640625 34.625 12.203125 32.671875 
Q 13.71875 30.671875 18.359375 28.421875 
L 25.484375 24.953125 
Q 35.40625 20.125 35.40625 12.203125 
Q 35.40625 6.109375 30.78125 2.359375 
Q 26.171875 -1.375 20.453125 -1.375 
Q 16.359375 -1.375 11.078125 0.09375 
Q 9.46875 0.59375 8.453125 0.59375 
Q 7.328125 0.59375 6.6875 -0.6875 
L 5.078125 -0.6875 
L 5.078125 15.28125 
L 6.6875 15.28125 
Q 8.0625 8.453125 11.90625 4.984375 
Q 15.765625 1.515625 20.5625 1.515625 
Q 23.921875 1.515625 26.046875 3.484375 
Q 28.171875 5.46875 28.171875 8.25 
Q 28.171875 11.625 25.796875 13.921875 
Q 23.4375 16.21875 16.359375 19.734375 
Q 9.28125 23.25 7.078125 26.078125 
Q 4.890625 28.859375 4.890625 33.109375 
Q 4.890625 38.625 8.671875 42.328125 
Q 12.453125 46.046875 18.453125 46.046875 
Q 21.09375 46.046875 24.859375 44.921875 
Q 27.34375 44.1875 28.171875 44.1875 
Q 28.953125 44.1875 29.390625 44.53125 
Q 29.828125 44.875 30.421875 46.046875 
z
" id="TimesNewRomanPSMT-115"/>
       <path d="M 16.109375 59.421875 
L 16.109375 44.734375 
L 26.5625 44.734375 
L 26.5625 41.3125 
L 16.109375 41.3125 
L 16.109375 12.3125 
Q 16.109375 7.953125 17.359375 6.4375 
Q 18.609375 4.9375 20.5625 4.9375 
Q 22.171875 4.9375 23.6875 5.9375 
Q 25.203125 6.9375 26.03125 8.890625 
L 27.9375 8.890625 
Q 26.21875 4.109375 23.09375 1.6875 
Q 19.96875 -0.734375 16.65625 -0.734375 
Q 14.40625 -0.734375 12.25 0.515625 
Q 10.109375 1.765625 9.078125 4.078125 
Q 8.0625 6.390625 8.0625 11.234375 
L 8.0625 41.3125 
L 0.984375 41.3125 
L 0.984375 42.921875 
Q 3.65625 44 6.46875 46.5625 
Q 9.28125 49.125 11.46875 52.640625 
Q 12.59375 54.5 14.59375 59.421875 
z
" id="TimesNewRomanPSMT-116"/>
      </defs>
      <use xlink:href="#TimesNewRomanPSMT-84"/>
      <use x="61.083984" xlink:href="#TimesNewRomanPSMT-104"/>
      <use x="111.083984" xlink:href="#TimesNewRomanPSMT-101"/>
      <use x="155.46875" xlink:href="#TimesNewRomanPSMT-32"/>
      <use x="180.46875" xlink:href="#TimesNewRomanPSMT-110"/>
      <use x="230.46875" xlink:href="#TimesNewRomanPSMT-117"/>
      <use x="280.46875" xlink:href="#TimesNewRomanPSMT-109"/>
      <use x="358.251953" xlink:href="#TimesNewRomanPSMT-98"/>
      <use x="408.251953" xlink:href="#TimesNewRomanPSMT-101"/>
      <use x="452.636719" xlink:href="#TimesNewRomanPSMT-114"/>
      <use x="485.9375" xlink:href="#TimesNewRomanPSMT-32"/>
      <use x="510.9375" xlink:href="#TimesNewRomanPSMT-111"/>
      <use x="560.9375" xlink:href="#TimesNewRomanPSMT-102"/>
      <use x="594.238281" xlink:href="#TimesNewRomanPSMT-32"/>
      <use x="619.238281" xlink:href="#TimesNewRomanPSMT-114"/>
      <use x="652.539062" xlink:href="#TimesNewRomanPSMT-101"/>
      <use x="696.923828" xlink:href="#TimesNewRomanPSMT-113"/>
      <use x="746.923828" xlink:href="#TimesNewRomanPSMT-117"/>
      <use x="796.923828" xlink:href="#TimesNewRomanPSMT-101"/>
      <use x="841.308594" xlink:href="#TimesNewRomanPSMT-115"/>
      <use x="880.224609" xlink:href="#TimesNewRomanPSMT-116"/>
      <use x="908.007812" xlink:href="#TimesNewRomanPSMT-115"/>
     </g>
    </g>
    <g id="text_33">
     <!-- 1e6 -->
     <g transform="translate(90 40.2)scale(0.1 -0.1)">
      <use xlink:href="#TimesNewRomanPSMT-49"/>
      <use x="50" xlink:href="#TimesNewRomanPSMT-101"/>
      <use x="94.384766" xlink:href="#TimesNewRomanPSMT-54"/>
     </g>
    </g>
   </g>
   <g id="line2d_31">
    <path clip-path="url(#pa496475b9d)" d="M 90 184.501609 
L 93.732441 206.891079 
L 97.464883 226.980539 
L 99.331104 236.162982 
L 101.197324 244.77068 
L 103.063545 252.803722 
L 104.929766 260.262192 
L 106.795987 267.146177 
L 108.662207 273.455763 
L 110.528428 279.191037 
L 112.394649 284.352084 
L 114.26087 288.938991 
L 116.12709 292.951844 
L 117.993311 296.39073 
L 119.859532 299.255733 
L 121.725753 301.546942 
L 123.591973 303.264441 
L 125.458194 304.408317 
L 127.324415 304.978657 
L 129.190635 304.975545 
L 131.056856 304.39907 
L 132.923077 303.249316 
L 134.789298 301.526371 
L 136.655518 299.230319 
L 138.521739 296.361248 
L 140.38796 292.937517 
L 142.254181 289.050573 
L 145.986622 280.325939 
L 153.451505 262.145883 
L 155.317726 258.088665 
L 157.183946 254.446009 
L 159.050167 251.327637 
L 160.916388 248.84327 
L 162.782609 247.102629 
L 164.648829 246.179359 
L 166.51505 246.002787 
L 168.381271 246.466166 
L 170.247492 247.462744 
L 172.113712 248.885772 
L 173.979933 250.628501 
L 177.712375 254.646064 
L 181.444816 258.661436 
L 183.311037 260.401427 
L 185.177258 261.820621 
L 187.043478 262.81227 
L 188.909699 263.298151 
L 190.77592 263.314158 
L 192.64214 262.924711 
L 194.508361 262.194231 
L 196.374582 261.18714 
L 198.240803 259.967857 
L 201.973244 257.150403 
L 205.705686 254.257235 
L 207.571906 252.943311 
L 209.438127 251.803722 
L 211.304348 250.902887 
L 213.170569 250.287958 
L 215.036789 249.936999 
L 216.90301 249.810804 
L 218.769231 249.870168 
L 222.501672 250.388748 
L 231.832776 252.188066 
L 233.698997 252.320488 
L 235.565217 252.285617 
L 237.431438 252.0515 
L 239.297659 251.615201 
L 241.16388 250.981041 
L 243.0301 250.153337 
L 244.896321 249.136408 
L 246.762542 247.934572 
L 248.628763 246.552149 
L 250.494983 244.993458 
L 252.361204 243.262816 
L 254.227425 241.364544 
L 257.959866 237.082379 
L 261.692308 232.192768 
L 267.29097 224.46602 
L 269.157191 222.068698 
L 271.023411 219.880249 
L 272.889632 217.97252 
L 274.755853 216.417356 
L 276.622074 215.286604 
L 278.488294 214.652108 
L 280.354515 214.585716 
L 282.220736 215.159274 
L 284.086957 216.444627 
L 285.953177 218.477949 
L 287.819398 221.15273 
L 289.685619 224.326785 
L 293.41806 231.603989 
L 297.150502 239.172096 
L 299.016722 242.70978 
L 300.882943 245.893641 
L 302.749164 248.581495 
L 304.615385 250.631159 
L 306.481605 251.90045 
L 308.347826 252.247185 
L 310.214047 251.577413 
L 312.080268 249.990109 
L 313.946488 247.632482 
L 315.812709 244.651738 
L 317.67893 241.195087 
L 321.411371 233.442891 
L 325.143813 225.553556 
L 327.010033 221.925481 
L 328.876254 218.704744 
L 330.742475 216.038553 
L 332.608696 214.074116 
L 334.474916 212.91975 
L 336.341137 212.528207 
L 338.207358 212.813349 
L 340.073579 213.689037 
L 341.939799 215.069132 
L 343.80602 216.867497 
L 345.672241 218.997992 
L 349.404682 223.910819 
L 355.003344 231.617576 
L 356.869565 233.931945 
L 358.735786 235.984464 
L 360.602007 237.73394 
L 362.468227 239.148168 
L 364.334448 240.194944 
L 366.200669 240.842064 
L 368.06689 241.057323 
L 369.93311 240.808519 
L 371.799331 240.063445 
L 373.665552 238.789899 
L 375.531773 236.955676 
L 377.397993 234.528571 
L 379.264214 231.476381 
L 381.130435 227.766901 
L 382.996656 223.396126 
L 384.862876 218.472843 
L 388.595318 207.516702 
L 394.19398 190.363351 
L 396.060201 185.001743 
L 397.926421 180.046534 
L 399.792642 175.63471 
L 401.658863 171.903259 
L 403.525084 168.989166 
L 405.391304 167.029418 
L 407.257525 166.121086 
L 409.123746 166.201575 
L 410.989967 167.168375 
L 412.856187 168.918974 
L 414.722408 171.350862 
L 416.588629 174.361529 
L 418.454849 177.848463 
L 420.32107 181.709154 
L 424.053512 190.141764 
L 429.652174 203.031086 
L 433.384615 210.746211 
L 437.117057 217.623598 
L 440.849498 223.79074 
L 444.58194 229.375129 
L 448.314381 234.504258 
L 453.913043 241.623226 
L 457.645485 246.099102 
L 461.377926 250.128665 
L 463.244147 251.879271 
L 465.110368 253.40213 
L 466.976589 254.658518 
L 468.842809 255.609714 
L 470.70903 256.216993 
L 472.575251 256.441632 
L 474.441472 256.24491 
L 476.307692 255.588102 
L 478.173913 254.432486 
L 480.040134 252.75993 
L 481.906355 250.634662 
L 483.772575 248.141502 
L 487.505017 242.390787 
L 494.9699 230.206722 
L 496.83612 227.513273 
L 498.702341 225.13049 
L 500.568562 223.143192 
L 502.434783 221.6362 
L 504.301003 220.666484 
L 506.167224 220.179616 
L 508.033445 220.093318 
L 509.899666 220.325315 
L 511.765886 220.793329 
L 515.498328 222.1083 
L 519.230769 223.380013 
L 521.09699 223.793955 
L 522.963211 223.950252 
L 524.829431 223.766626 
L 526.695652 223.1608 
L 528.561873 222.072252 
L 530.428094 220.527475 
L 532.294314 218.574715 
L 534.160535 216.26222 
L 536.026756 213.638238 
L 537.892977 210.751015 
L 541.625418 204.379839 
L 554.688963 180.878372 
L 556.555184 178.006093 
L 558.421405 175.395366 
L 560.287625 173.092464 
L 562.153846 171.143659 
L 564.020067 169.595221 
L 565.886288 168.493423 
L 567.752508 167.884536 
L 569.618729 167.814832 
L 571.48495 168.330582 
L 573.351171 169.478059 
L 575.217391 171.303533 
L 577.083612 173.827721 
L 578.949833 176.969118 
L 580.816054 180.620664 
L 582.682274 184.675299 
L 586.414716 193.565597 
L 592.013378 207.247708 
L 593.879599 211.472615 
L 595.745819 215.35119 
L 597.61204 218.776374 
L 599.478261 221.641106 
L 601.344482 223.861901 
L 603.210702 225.449576 
L 605.076923 226.438522 
L 606.943144 226.86313 
L 608.809365 226.757792 
L 610.675585 226.156899 
L 612.541806 225.094842 
L 614.408027 223.606014 
L 616.274247 221.724806 
L 618.140468 219.485608 
L 620.006689 216.922813 
L 621.87291 214.070812 
L 623.73913 210.963997 
L 627.471572 204.123487 
L 631.204013 196.676416 
L 644.267559 169.807209 
L 648 163.035365 
L 648 163.035365 
" style="fill:none;stroke:#1f77b4;stroke-linecap:square;stroke-width:1.5;"/>
   </g>
   <g id="line2d_32">
    <path clip-path="url(#pa496475b9d)" d="M 90 214.074116 
L 91.866221 214.345436 
L 93.732441 214.985998 
L 95.598662 215.952198 
L 97.464883 217.200436 
L 99.331104 218.687109 
L 101.197324 220.368616 
L 104.929766 224.141723 
L 112.394649 232.107456 
L 116.12709 235.602453 
L 117.993311 237.075377 
L 119.859532 238.307116 
L 121.725753 239.254068 
L 123.591973 239.87263 
L 125.458194 240.119202 
L 127.324415 239.950181 
L 129.190635 239.321965 
L 131.056856 238.190953 
L 132.923077 236.513543 
L 134.789298 234.246132 
L 136.655518 231.345118 
L 138.521739 227.766901 
L 140.38796 223.498485 
L 142.254181 218.649303 
L 145.986622 207.768807 
L 151.585284 190.593338 
L 153.451505 185.200418 
L 155.317726 180.207017 
L 157.183946 175.753176 
L 159.050167 171.978936 
L 160.916388 169.024336 
L 162.782609 167.029418 
L 164.648829 166.093661 
L 166.51505 166.154297 
L 168.381271 167.107997 
L 170.247492 168.851431 
L 172.113712 171.281271 
L 173.979933 174.294188 
L 175.846154 177.786851 
L 177.712375 181.655933 
L 181.444816 190.110033 
L 187.043478 203.031086 
L 190.77592 210.758865 
L 194.508361 217.641665 
L 198.240803 223.80874 
L 201.973244 229.389339 
L 205.705686 234.512716 
L 211.304348 241.623226 
L 215.036789 246.095766 
L 218.769231 250.12394 
L 220.635452 251.874429 
L 222.501672 253.397473 
L 224.367893 254.65429 
L 226.234114 255.606094 
L 228.100334 256.214102 
L 229.966555 256.439529 
L 231.832776 256.243592 
L 233.698997 255.587506 
L 235.565217 254.432486 
L 237.431438 252.760355 
L 239.297659 250.635351 
L 241.16388 248.142319 
L 244.896321 242.391547 
L 252.361204 230.206815 
L 254.227425 227.513227 
L 256.093645 225.130366 
L 257.959866 223.143075 
L 259.826087 221.6362 
L 261.692308 220.666725 
L 263.558528 220.180195 
L 265.424749 220.094295 
L 267.29097 220.326712 
L 269.157191 220.795131 
L 272.889632 222.110715 
L 276.622074 223.382532 
L 278.488294 223.796241 
L 280.354515 223.952066 
L 282.220736 223.76769 
L 284.086957 223.1608 
L 285.953177 222.070863 
L 287.819398 220.524469 
L 289.685619 218.569991 
L 291.551839 216.255801 
L 293.41806 213.630272 
L 295.284281 210.741776 
L 299.016722 204.369372 
L 310.214047 183.971249 
L 312.080268 180.889815 
L 313.946488 178.02401 
L 315.812709 175.419644 
L 317.67893 173.122525 
L 319.545151 171.178462 
L 321.411371 169.633264 
L 323.277592 168.532739 
L 325.143813 167.922698 
L 327.010033 167.848947 
L 328.876254 168.357297 
L 330.742475 169.493556 
L 332.608696 171.303533 
L 334.474916 173.807846 
L 336.341137 176.926352 
L 338.207358 180.553716 
L 340.073579 184.584606 
L 343.80602 193.435623 
L 349.404682 207.105232 
L 351.270903 211.345255 
L 353.137124 215.251464 
L 355.003344 218.718526 
L 356.869565 221.641106 
L 358.735786 223.936085 
L 360.602007 225.609198 
L 362.468227 226.688395 
L 364.334448 227.201626 
L 366.200669 227.176842 
L 368.06689 226.641992 
L 369.93311 225.625026 
L 371.799331 224.153894 
L 373.665552 222.256546 
L 375.531773 219.960933 
L 377.397993 217.295003 
L 379.264214 214.286708 
L 381.130435 210.963997 
L 384.862876 203.527767 
L 388.595318 195.413124 
L 396.060201 179.018397 
L 399.792642 171.673213 
L 401.658863 168.418175 
L 403.525084 165.519416 
L 405.391304 163.035365 
L 407.257525 161.019646 
L 409.123746 159.506644 
L 410.989967 158.525933 
L 412.856187 158.107091 
L 414.722408 158.279693 
L 416.588629 159.073315 
L 418.454849 160.517533 
L 420.32107 162.641923 
L 422.187291 165.476061 
L 424.053512 169.049523 
L 425.919732 173.391884 
L 427.785953 178.532721 
L 429.652174 184.501609 
L 431.518395 191.29992 
L 433.384615 198.816199 
L 437.117057 215.444033 
L 448.314381 268.034341 
L 450.180602 275.727723 
L 452.046823 282.742493 
L 453.913043 288.938991 
L 455.779264 294.207089 
L 457.645485 298.554772 
L 459.511706 302.019556 
L 461.377926 304.638956 
L 463.244147 306.450486 
L 465.110368 307.491663 
L 466.976589 307.8 
L 468.842809 307.413013 
L 470.70903 306.368218 
L 472.575251 304.703129 
L 474.441472 302.455261 
L 476.307692 299.662129 
L 478.173913 296.361248 
L 480.040134 292.600507 
L 481.906355 288.469283 
L 485.638796 279.494388 
L 491.237458 265.747191 
L 493.103679 261.487833 
L 494.9699 257.556247 
L 496.83612 254.052182 
L 498.702341 251.075391 
L 500.568562 248.725623 
L 502.434783 247.102629 
L 504.301003 246.272153 
L 506.167224 246.163907 
L 508.033445 246.673597 
L 509.899666 247.69693 
L 511.765886 249.12961 
L 513.632107 250.867345 
L 517.364548 254.840797 
L 521.09699 258.782933 
L 522.963211 260.481521 
L 524.829431 261.859399 
L 526.695652 262.81227 
L 528.561873 263.263985 
L 530.428094 263.25097 
L 532.294314 262.837797 
L 534.160535 262.089036 
L 536.026756 261.069257 
L 537.892977 259.843032 
L 541.625418 257.029524 
L 545.35786 254.165078 
L 547.22408 252.87518 
L 549.090301 251.766259 
L 550.956522 250.902887 
L 552.822742 250.331829 
L 554.688963 250.028629 
L 556.555184 249.951028 
L 558.421405 250.056764 
L 562.153846 250.649208 
L 569.618729 252.174689 
L 571.48495 252.380498 
L 573.351171 252.43156 
L 575.217391 252.285617 
L 577.083612 251.910181 
L 578.949833 251.311867 
L 580.816054 250.50706 
L 582.682274 249.512148 
L 584.548495 248.343519 
L 586.414716 247.01756 
L 590.147157 243.959199 
L 593.879599 240.468164 
L 597.61204 236.675553 
L 608.809365 225.012559 
L 612.541806 221.696647 
L 614.408027 220.265607 
L 616.274247 219.021347 
L 618.140468 217.990492 
L 620.006689 217.199669 
L 621.87291 216.675505 
L 623.73913 216.444627 
L 625.605351 216.533659 
L 627.471572 216.96923 
L 629.337793 217.777966 
L 631.204013 218.986492 
L 633.070234 220.621435 
L 634.936455 222.709423 
L 636.802676 225.277081 
L 638.668896 228.351035 
L 640.535117 231.957913 
L 642.401338 236.12434 
L 644.267559 240.876944 
L 646.133779 246.24235 
L 648 252.247185 
L 648 252.247185 
" style="fill:none;stroke:#ff7f0e;stroke-linecap:square;stroke-width:1.5;"/>
   </g>
   <g id="line2d_33">
    <path clip-path="url(#pa496475b9d)" d="M 90 141.976745 
L 91.866221 132.783334 
L 93.732441 125.258693 
L 95.598662 119.293748 
L 97.464883 114.779426 
L 99.331104 111.606655 
L 101.197324 109.666364 
L 103.063545 108.849478 
L 104.929766 109.046927 
L 106.795987 110.149636 
L 108.662207 112.048535 
L 110.528428 114.63455 
L 112.394649 117.798609 
L 114.26087 121.431639 
L 117.993311 129.668324 
L 125.458194 146.970164 
L 127.324415 150.831966 
L 129.190635 154.290159 
L 131.056856 157.235672 
L 132.923077 159.559431 
L 134.789298 161.152365 
L 136.655518 161.905401 
L 138.521739 161.709466 
L 140.38796 160.498996 
L 142.254181 158.382457 
L 144.120401 155.511824 
L 145.986622 152.039072 
L 147.852843 148.116175 
L 151.585284 139.527843 
L 155.317726 130.962625 
L 157.183946 127.068619 
L 159.050167 123.636316 
L 160.916388 120.817689 
L 162.782609 118.764712 
L 164.648829 117.58849 
L 166.51505 117.236641 
L 168.381271 117.615912 
L 170.247492 118.633051 
L 172.113712 120.194805 
L 173.979933 122.207921 
L 175.846154 124.579147 
L 179.578595 130.022919 
L 185.177258 138.543087 
L 187.043478 141.104668 
L 188.909699 143.380933 
L 190.77592 145.32533 
L 192.64214 146.900654 
L 194.508361 148.069694 
L 196.374582 148.795242 
L 198.240803 149.040091 
L 200.107023 148.767032 
L 201.973244 147.938857 
L 203.839465 146.518356 
L 205.705686 144.468323 
L 207.571906 141.751549 
L 209.438127 138.330824 
L 211.304348 134.168942 
L 213.170569 129.260623 
L 215.036789 123.72831 
L 218.769231 111.409187 
L 224.367893 92.109834 
L 226.234114 86.075359 
L 228.100334 80.497492 
L 229.966555 75.530603 
L 231.832776 71.329066 
L 233.698997 68.04725 
L 235.565217 65.839529 
L 237.431438 64.815313 
L 239.297659 64.904168 
L 241.16388 65.9907 
L 243.0301 67.959514 
L 244.896321 70.695215 
L 246.762542 74.082409 
L 248.628763 78.0057 
L 250.494983 82.349695 
L 254.227425 91.838216 
L 259.826087 106.341406 
L 263.558528 115.02199 
L 267.29097 122.759498 
L 271.023411 129.697515 
L 274.755853 135.979624 
L 278.488294 141.749407 
L 282.220736 147.15045 
L 287.819398 154.792688 
L 291.551839 159.325879 
L 293.41806 161.295324 
L 295.284281 163.008572 
L 297.150502 164.422054 
L 299.016722 165.492198 
L 300.882943 166.175434 
L 302.749164 166.428191 
L 304.615385 166.206898 
L 306.481605 165.467984 
L 308.347826 164.167879 
L 310.214047 162.286179 
L 312.080268 159.895149 
L 313.946488 157.090224 
L 315.812709 153.966836 
L 319.545151 147.146408 
L 323.277592 140.197331 
L 325.143813 136.913134 
L 327.010033 133.883074 
L 328.876254 131.202585 
L 330.742475 128.967102 
L 332.608696 127.272057 
L 334.474916 126.181544 
L 336.341137 125.634304 
L 338.207358 125.537737 
L 340.073579 125.799243 
L 341.939799 126.326223 
L 345.672241 127.806206 
L 349.404682 129.236891 
L 351.270903 129.702247 
L 353.137124 129.877481 
L 355.003344 129.669992 
L 356.869565 128.987181 
L 358.735786 127.760952 
L 360.602007 126.021219 
L 362.468227 123.8224 
L 364.334448 121.218914 
L 366.200669 118.265178 
L 368.06689 115.015609 
L 371.799331 107.846649 
L 382.996656 84.898786 
L 384.862876 81.432174 
L 386.729097 78.208143 
L 388.595318 75.27823 
L 390.461538 72.69397 
L 392.327759 70.506897 
L 394.19398 68.768547 
L 396.060201 67.530455 
L 397.926421 66.844156 
L 399.792642 66.761187 
L 401.658863 67.333081 
L 403.525084 68.611374 
L 405.391304 70.647602 
L 407.257525 73.46496 
L 409.123746 76.973286 
L 410.989967 81.054079 
L 412.856187 85.588837 
L 416.588629 95.546245 
L 422.187291 110.924561 
L 424.053512 115.694582 
L 425.919732 120.089058 
L 427.785953 123.989489 
L 429.652174 127.277372 
L 431.518395 129.859197 
L 433.384615 131.741421 
L 435.250836 132.955488 
L 437.117057 133.532845 
L 438.983278 133.504939 
L 440.849498 132.903217 
L 442.715719 131.759123 
L 444.58194 130.104106 
L 446.448161 127.96961 
L 448.314381 125.387083 
L 450.180602 122.387971 
L 452.046823 119.00372 
L 453.913043 115.265777 
L 457.645485 106.900303 
L 461.377926 97.771645 
L 466.976589 83.797873 
L 470.70903 75.061626 
L 472.575251 71.064558 
L 474.441472 67.402492 
L 476.307692 64.141155 
L 478.173913 61.346271 
L 480.040134 59.078163 
L 481.906355 57.375542 
L 483.772575 56.271718 
L 485.638796 55.8 
L 487.505017 55.993698 
L 489.371237 56.886122 
L 491.237458 58.51058 
L 493.103679 60.900382 
L 494.9699 64.088838 
L 496.83612 68.109257 
L 498.702341 72.994949 
L 500.568562 78.779222 
L 502.434783 85.495387 
L 504.301003 93.144993 
L 506.167224 101.602552 
L 509.899666 120.312539 
L 521.09699 179.479606 
L 522.963211 188.132594 
L 524.829431 196.021057 
L 526.695652 202.987748 
L 528.561873 208.908743 
L 530.428094 213.793411 
L 532.294314 217.684447 
L 534.160535 220.624545 
L 536.026756 222.656398 
L 537.892977 223.8227 
L 539.759197 224.166146 
L 541.625418 223.729429 
L 543.491639 222.555242 
L 545.35786 220.686281 
L 547.22408 218.165239 
L 549.090301 215.034809 
L 550.956522 211.337685 
L 552.822742 207.127846 
L 554.688963 202.504402 
L 558.421405 192.458286 
L 564.020067 177.046969 
L 565.886288 172.260209 
L 567.752508 167.832613 
L 569.618729 163.874577 
L 571.48495 160.496498 
L 573.351171 157.80877 
L 575.217391 155.92179 
L 577.083612 154.909132 
L 578.949833 154.697091 
L 580.816054 155.175143 
L 582.682274 156.232761 
L 584.548495 157.75942 
L 586.414716 159.644595 
L 590.147157 164.048392 
L 593.879599 168.559948 
L 595.745819 170.579822 
L 597.61204 172.295059 
L 599.478261 173.595135 
L 601.344482 174.395819 
L 603.210702 174.718059 
L 605.076923 174.609099 
L 606.943144 174.116184 
L 608.809365 173.286556 
L 610.675585 172.167459 
L 612.541806 170.806138 
L 614.408027 169.249835 
L 618.140468 165.74126 
L 625.605351 158.463058 
L 627.471572 156.86471 
L 629.337793 155.449329 
L 631.204013 154.264161 
L 633.070234 153.356449 
L 634.936455 152.773436 
L 636.802676 152.562366 
L 638.668896 152.770482 
L 640.535117 153.445029 
L 642.401338 154.63325 
L 644.267559 156.382389 
L 646.133779 158.73969 
L 648 161.752395 
L 648 161.752395 
" style="fill:none;stroke:#2ca02c;stroke-linecap:square;stroke-width:1.5;"/>
   </g>
   <g id="patch_3">
    <path d="M 90 320.4 
L 90 43.2 
" style="fill:none;stroke:#000000;stroke-linecap:square;stroke-linejoin:miter;stroke-width:0.8;"/>
   </g>
   <g id="patch_4">
    <path d="M 648 320.4 
L 648 43.2 
" style="fill:none;stroke:#000000;stroke-linecap:square;stroke-linejoin:miter;stroke-width:0.8;"/>
   </g>
   <g id="patch_5">
    <path d="M 90 320.4 
L 648 320.4 
" style="fill:none;stroke:#000000;stroke-linecap:square;stroke-linejoin:miter;stroke-width:0.8;"/>
   </g>
   <g id="patch_6">
    <path d="M 90 43.2 
L 648 43.2 
" style="fill:none;stroke:#000000;stroke-linecap:square;stroke-linejoin:miter;stroke-width:0.8;"/>
   </g>
   <g id="legend_1">
    <g id="patch_7">
     <path d="M 590.109375 93.617188 
L 641 93.617188 
Q 643 93.617188 643 91.617188 
L 643 50.2 
Q 643 48.2 641 48.2 
L 590.109375 48.2 
Q 588.109375 48.2 588.109375 50.2 
L 588.109375 91.617188 
Q 588.109375 93.617188 590.109375 93.617188 
z
" style="fill:#ffffff;opacity:0.8;stroke:#cccccc;stroke-linejoin:miter;"/>
    </g>
    <g id="line2d_34">
     <path d="M 592.109375 55.7 
L 612.109375 55.7 
" style="fill:none;stroke:#1f77b4;stroke-linecap:square;stroke-width:1.5;"/>
    </g>
    <g id="line2d_35"/>
    <g id="text_34">
     <!-- WE -->
     <g transform="translate(620.109375 59.2)scale(0.1 -0.1)">
      <defs>
       <path d="M 93.609375 66.21875 
L 93.609375 64.40625 
Q 91.015625 64.40625 89.40625 63.46875 
Q 87.796875 62.546875 86.328125 60.015625 
Q 85.359375 58.296875 83.25 51.859375 
L 64.796875 -1.515625 
L 62.84375 -1.515625 
L 47.75 40.828125 
L 32.765625 -1.515625 
L 31 -1.515625 
L 11.328125 53.46875 
Q 9.125 59.625 8.546875 60.75 
Q 7.5625 62.59375 5.875 63.5 
Q 4.203125 64.40625 1.3125 64.40625 
L 1.3125 66.21875 
L 25.828125 66.21875 
L 25.828125 64.40625 
L 24.65625 64.40625 
Q 22.078125 64.40625 20.703125 63.234375 
Q 19.34375 62.0625 19.34375 60.40625 
Q 19.34375 58.6875 21.484375 52.546875 
L 34.515625 15.375 
L 45.515625 46.96875 
L 43.5625 52.546875 
L 42 56.984375 
Q 40.96875 59.421875 39.703125 61.28125 
Q 39.0625 62.203125 38.140625 62.84375 
Q 36.921875 63.71875 35.6875 64.109375 
Q 34.765625 64.40625 32.765625 64.40625 
L 32.765625 66.21875 
L 58.546875 66.21875 
L 58.546875 64.40625 
L 56.78125 64.40625 
Q 54.046875 64.40625 52.78125 63.234375 
Q 51.515625 62.0625 51.515625 60.0625 
Q 51.515625 57.5625 53.71875 51.375 
L 66.40625 15.375 
L 79 51.859375 
Q 81.15625 57.90625 81.15625 60.25 
Q 81.15625 61.375 80.4375 62.34375 
Q 79.734375 63.328125 78.65625 63.71875 
Q 76.8125 64.40625 73.828125 64.40625 
L 73.828125 66.21875 
z
" id="TimesNewRomanPSMT-87"/>
       <path d="M 20.90625 62.59375 
L 20.90625 36.421875 
L 35.453125 36.421875 
Q 41.109375 36.421875 43.015625 38.140625 
Q 45.5625 40.375 45.84375 46.046875 
L 47.65625 46.046875 
L 47.65625 23 
L 45.84375 23 
Q 45.171875 27.828125 44.484375 29.203125 
Q 43.609375 30.90625 41.59375 31.875 
Q 39.59375 32.859375 35.453125 32.859375 
L 20.90625 32.859375 
L 20.90625 11.03125 
Q 20.90625 6.640625 21.296875 5.6875 
Q 21.6875 4.734375 22.65625 4.171875 
Q 23.640625 3.609375 26.375 3.609375 
L 37.59375 3.609375 
Q 43.21875 3.609375 45.75 4.390625 
Q 48.296875 5.171875 50.640625 7.46875 
Q 53.65625 10.5 56.84375 16.609375 
L 58.796875 16.609375 
L 53.078125 0 
L 2.046875 0 
L 2.046875 1.8125 
L 4.390625 1.8125 
Q 6.734375 1.8125 8.84375 2.9375 
Q 10.40625 3.71875 10.96875 5.28125 
Q 11.53125 6.84375 11.53125 11.671875 
L 11.53125 54.6875 
Q 11.53125 60.984375 10.25 62.453125 
Q 8.5 64.40625 4.390625 64.40625 
L 2.046875 64.40625 
L 2.046875 66.21875 
L 53.078125 66.21875 
L 53.8125 51.703125 
L 51.90625 51.703125 
Q 50.875 56.9375 49.625 58.890625 
Q 48.390625 60.84375 45.953125 61.859375 
Q 44 62.59375 39.0625 62.59375 
z
" id="TimesNewRomanPSMT-69"/>
      </defs>
      <use xlink:href="#TimesNewRomanPSMT-87"/>
      <use x="94.384766" xlink:href="#TimesNewRomanPSMT-69"/>
     </g>
    </g>
    <g id="line2d_36">
     <path d="M 592.109375 69.839063 
L 612.109375 69.839063 
" style="fill:none;stroke:#ff7f0e;stroke-linecap:square;stroke-width:1.5;"/>
    </g>
    <g id="line2d_37"/>
    <g id="text_35">
     <!-- SEA -->
     <g transform="translate(620.109375 73.339063)scale(0.1 -0.1)">
      <defs>
       <path d="M 45.84375 67.71875 
L 45.84375 44.828125 
L 44.046875 44.828125 
Q 43.171875 51.421875 40.890625 55.328125 
Q 38.625 59.234375 34.421875 61.515625 
Q 30.21875 63.8125 25.734375 63.8125 
Q 20.65625 63.8125 17.328125 60.71875 
Q 14.015625 57.625 14.015625 53.65625 
Q 14.015625 50.640625 16.109375 48.140625 
Q 19.140625 44.484375 30.515625 38.375 
Q 39.796875 33.40625 43.1875 30.734375 
Q 46.578125 28.078125 48.40625 24.453125 
Q 50.25 20.84375 50.25 16.890625 
Q 50.25 9.375 44.40625 3.921875 
Q 38.578125 -1.515625 29.390625 -1.515625 
Q 26.515625 -1.515625 23.96875 -1.078125 
Q 22.46875 -0.828125 17.703125 0.703125 
Q 12.9375 2.25 11.671875 2.25 
Q 10.453125 2.25 9.734375 1.515625 
Q 9.03125 0.78125 8.6875 -1.515625 
L 6.890625 -1.515625 
L 6.890625 21.1875 
L 8.6875 21.1875 
Q 9.96875 14.0625 12.109375 10.515625 
Q 14.265625 6.984375 18.671875 4.640625 
Q 23.09375 2.296875 28.375 2.296875 
Q 34.46875 2.296875 38 5.515625 
Q 41.546875 8.734375 41.546875 13.140625 
Q 41.546875 15.578125 40.203125 18.0625 
Q 38.875 20.5625 36.03125 22.703125 
Q 34.125 24.171875 25.625 28.921875 
Q 17.140625 33.6875 13.546875 36.515625 
Q 9.96875 39.359375 8.109375 42.765625 
Q 6.25 46.1875 6.25 50.296875 
Q 6.25 57.421875 11.71875 62.5625 
Q 17.1875 67.71875 25.640625 67.71875 
Q 30.90625 67.71875 36.8125 65.140625 
Q 39.546875 63.921875 40.671875 63.921875 
Q 41.9375 63.921875 42.75 64.671875 
Q 43.5625 65.4375 44.046875 67.71875 
z
" id="TimesNewRomanPSMT-83"/>
       <path d="M 45.75 22.171875 
L 20.125 22.171875 
L 15.625 11.71875 
Q 13.96875 7.859375 13.96875 5.953125 
Q 13.96875 4.4375 15.40625 3.296875 
Q 16.84375 2.15625 21.625 1.8125 
L 21.625 0 
L 0.78125 0 
L 0.78125 1.8125 
Q 4.9375 2.546875 6.15625 3.71875 
Q 8.640625 6.0625 11.671875 13.234375 
L 34.96875 67.71875 
L 36.671875 67.71875 
L 59.71875 12.640625 
Q 62.5 6 64.765625 4.015625 
Q 67.046875 2.046875 71.09375 1.8125 
L 71.09375 0 
L 44.96875 0 
L 44.96875 1.8125 
Q 48.921875 2 50.3125 3.125 
Q 51.703125 4.25 51.703125 5.859375 
Q 51.703125 8.015625 49.75 12.640625 
z
M 44.390625 25.78125 
L 33.15625 52.546875 
L 21.625 25.78125 
z
" id="TimesNewRomanPSMT-65"/>
      </defs>
      <use xlink:href="#TimesNewRomanPSMT-83"/>
      <use x="55.615234" xlink:href="#TimesNewRomanPSMT-69"/>
      <use x="116.699219" xlink:href="#TimesNewRomanPSMT-65"/>
     </g>
    </g>
    <g id="line2d_38">
     <path d="M 592.109375 83.978125 
L 612.109375 83.978125 
" style="fill:none;stroke:#2ca02c;stroke-linecap:square;stroke-width:1.5;"/>
    </g>
    <g id="line2d_39"/>
    <g id="text_36">
     <!-- EE -->
     <g transform="translate(620.109375 87.478125)scale(0.1 -0.1)">
      <use xlink:href="#TimesNewRomanPSMT-69"/>
      <use x="61.083984" xlink:href="#TimesNewRomanPSMT-69"/>
     </g>
    </g>
   </g>
  </g>
 </g>
 <defs>
  <clipPath id="pa496475b9d">
   <rect height="277.2" width="558" x="90" y="43.2"/>
  </clipPath>
 </defs>
</svg>
